<svg width="16" height="16" viewBox="0 0 16 16" fill="none" xmlns="http://www.w3.org/2000/svg">
<g clip-path="url(#clip0_1458_12422)">
<path d="M15.3333 7.33304C15.1565 7.33304 14.987 7.2628 14.8619 7.13778C14.7369 7.01275 14.6667 6.84318 14.6667 6.66637C14.6653 5.25232 14.1029 3.89658 13.103 2.8967C12.1031 1.89681 10.7474 1.33445 9.33335 1.33304C9.15654 1.33304 8.98697 1.2628 8.86194 1.13778C8.73692 1.01275 8.66668 0.843184 8.66668 0.666373C8.66668 0.489562 8.73692 0.319993 8.86194 0.194969C8.98697 0.0699443 9.15654 -0.000293641 9.33335 -0.000293641C11.1009 0.00164742 12.7954 0.70465 14.0452 1.95447C15.2951 3.20429 15.9981 4.89886 16 6.66637C16 6.84318 15.9298 7.01275 15.8048 7.13778C15.6797 7.2628 15.5102 7.33304 15.3333 7.33304ZM13.3333 6.66637C13.3333 5.60551 12.9119 4.58809 12.1618 3.83795C11.4116 3.0878 10.3942 2.66637 9.33335 2.66637C9.15654 2.66637 8.98697 2.73661 8.86194 2.86163C8.73692 2.98666 8.66668 3.15623 8.66668 3.33304C8.66668 3.50985 8.73692 3.67942 8.86194 3.80444C8.98697 3.92947 9.15654 3.99971 9.33335 3.99971C10.0406 3.99971 10.7189 4.28066 11.219 4.78075C11.7191 5.28085 12 5.95913 12 6.66637C12 6.84318 12.0703 7.01275 12.1953 7.13778C12.3203 7.2628 12.4899 7.33304 12.6667 7.33304C12.8435 7.33304 13.0131 7.2628 13.1381 7.13778C13.2631 7.01275 13.3333 6.84318 13.3333 6.66637ZM14.7887 14.7757L15.3953 14.0764C15.7815 13.689 15.9983 13.1643 15.9983 12.6174C15.9983 12.0704 15.7815 11.5458 15.3953 11.1584C15.3747 11.1377 13.7707 9.90371 13.7707 9.90371C13.3857 9.53726 12.8744 9.33321 12.3429 9.33396C11.8114 9.3347 11.3006 9.54018 10.9167 9.90771L9.64601 10.9784C8.6088 10.5491 7.6666 9.91916 6.87354 9.12472C6.08047 8.33028 5.45216 7.387 5.02468 6.34904L6.09135 5.08237C6.45916 4.69849 6.66488 4.18762 6.66575 3.65597C6.66662 3.12433 6.46257 2.61279 6.09601 2.22771C6.09601 2.22771 4.86068 0.625706 4.84001 0.60504C4.45965 0.222205 3.94393 0.0043877 3.4043 -0.00135045C2.86466 -0.00708861 2.34443 0.199713 1.95601 0.574373L1.18935 1.24104C-3.33999 6.49571 6.41335 16.1737 11.8413 15.9997C12.3895 16.0029 12.9327 15.8962 13.4389 15.686C13.9451 15.4758 14.4041 15.1662 14.7887 14.7757Z" fill="#7A7FAA"/>
</g>
<defs>
<clipPath id="clip0_1458_12422">
<rect width="16" height="16" fill="white"/>
</clipPath>
</defs>
</svg>
