<svg width="16" height="16" viewBox="0 0 16 16" fill="none" xmlns="http://www.w3.org/2000/svg">
<g clip-path="url(#clip0_1458_12438)">
<path fill-rule="evenodd" clip-rule="evenodd" d="M13.642 2.32533C12.1447 0.826659 10.154 0.000659037 8.03336 -7.62939e-06C3.66336 -7.62939e-06 0.106692 3.55599 0.104692 7.92799C0.104025 9.32533 0.469358 10.6893 1.16336 11.892L0.0380249 16L4.24069 14.8973C5.39869 15.5293 6.70269 15.862 8.02936 15.8627H8.03269C12.402 15.8627 15.9594 12.306 15.9614 7.93399C15.9627 5.81599 15.1387 3.82333 13.642 2.32533ZM8.03336 14.5233H8.03069C6.84802 14.5233 5.68869 14.2053 4.67669 13.6047L4.43602 13.462L1.94203 14.116L2.60803 11.684L2.45136 11.4347C1.79136 10.3853 1.44336 9.17266 1.44402 7.92799C1.44536 4.29466 4.40203 1.33866 8.03669 1.33866C9.79669 1.33866 11.4514 2.02533 12.6954 3.27066C13.9394 4.51666 14.624 6.17199 14.6234 7.93266C14.6214 11.5673 11.6654 14.5233 8.03336 14.5233ZM11.648 9.58799C11.45 9.48866 10.476 9.00933 10.294 8.94333C10.1127 8.87733 9.98069 8.84399 9.84803 9.04199C9.71536 9.23999 9.33669 9.68666 9.22069 9.81933C9.10536 9.95133 8.98936 9.96799 8.79136 9.86866C8.59336 9.76933 7.95469 9.56066 7.19802 8.88533C6.60936 8.35999 6.21136 7.71133 6.09602 7.51266C5.98069 7.31399 6.08402 7.20733 6.18269 7.10866C6.27203 7.01999 6.38069 6.87733 6.48003 6.76133C6.58003 6.64666 6.61269 6.56399 6.67936 6.43133C6.74536 6.29933 6.71269 6.18333 6.66269 6.08399C6.61269 5.98533 6.21669 5.00999 6.05202 4.61333C5.89136 4.22666 5.72803 4.27933 5.60603 4.27333C5.49069 4.26733 5.35869 4.26666 5.22603 4.26666C5.09403 4.26666 4.87936 4.31599 4.69802 4.51466C4.51669 4.71333 4.00469 5.19266 4.00469 6.16733C4.00469 7.14266 4.71469 8.08466 4.81336 8.21666C4.91202 8.34866 6.21002 10.35 8.19736 11.208C8.67002 11.412 9.03936 11.534 9.32669 11.6253C9.80136 11.776 10.2334 11.7547 10.5747 11.704C10.9554 11.6473 11.7467 11.2247 11.912 10.762C12.0774 10.2993 12.0774 9.90199 12.0274 9.81999C11.978 9.73666 11.846 9.68733 11.648 9.58799Z" fill="#7A7FAA"/>
</g>
<defs>
<clipPath id="clip0_1458_12438">
<rect width="16" height="16" fill="white"/>
</clipPath>
</defs>
</svg>
