<svg width="25" height="24" viewBox="0 0 25 24" fill="none" xmlns="http://www.w3.org/2000/svg">
<path d="M12.8949 0.420346L16.2074 7.27997C16.2506 7.37555 16.3442 7.44172 16.445 7.45642L23.855 8.55926C24.4527 8.64748 24.6903 9.39741 24.2583 9.83119L19.0518 15.0072C18.879 15.1763 18.7998 15.4262 18.843 15.6689L20.0744 22.9843C20.1752 23.5946 19.5487 24.0577 19.0158 23.771L12.3836 20.2125C12.29 20.1611 12.1819 20.1611 12.0883 20.2125L5.45607 23.771C4.92319 24.0577 4.29669 23.5946 4.3975 22.9843L5.67211 15.4483C5.68651 15.3454 5.6577 15.2351 5.57849 15.1616L0.220833 9.82384C-0.211236 9.39006 0.0264022 8.64013 0.624098 8.5519L8.03408 7.44907C8.1349 7.43437 8.22851 7.3682 8.27172 7.27262L11.5843 0.412993C11.8507 -0.131071 12.6284 -0.131071 12.8949 0.420346Z" fill="url(#paint0_radial_879_13561)"/>
<path d="M4.10946 12.1546C2.71963 10.7356 0.753719 9.11816 1.16418 8.47852L0.624098 8.55939C0.0264022 8.64762 -0.211236 9.39754 0.220833 9.83132L5.58569 15.169C5.6577 15.2426 5.69371 15.3528 5.67931 15.4558C5.86654 14.1177 5.49928 13.5662 4.10946 12.1546Z" fill="url(#paint1_radial_879_13561)"/>
<path d="M20.3702 12.1546C21.76 10.7356 23.7259 9.11816 23.3154 8.47852L23.8555 8.55939C24.4532 8.64762 24.6909 9.39754 24.2588 9.83132L18.8939 15.169C18.8219 15.2426 18.7859 15.3528 18.8003 15.4558C18.6131 14.1177 18.9803 13.5662 20.3702 12.1546Z" fill="url(#paint2_radial_879_13561)"/>
<path d="M23.8552 8.55883L16.4453 7.456C16.3444 7.44129 16.2508 7.37512 16.2076 7.27954L12.8951 0.419922C12.8951 0.419922 12.5926 0.802237 13.2768 2.25798C13.7232 3.20641 14.897 5.8238 15.5379 7.17661C15.898 7.94124 16.4453 7.95595 17.2734 8.06623L22.7463 8.7794C22.7391 8.78675 23.344 8.83822 23.8552 8.55883Z" fill="url(#paint3_radial_879_13561)"/>
<path d="M12.8949 0.420346L16.2074 7.27997C16.2506 7.37555 16.3442 7.44172 16.445 7.45642L23.855 8.55926C24.4527 8.64748 24.6903 9.39741 24.2583 9.83119L19.0518 15.0072C18.879 15.1763 18.7998 15.4262 18.843 15.6689L20.0744 22.9843C20.1752 23.5946 19.5487 24.0577 19.0158 23.771L12.3836 20.2125C12.29 20.1611 12.1819 20.1611 12.0883 20.2125L5.45607 23.771C4.92319 24.0577 4.29669 23.5946 4.3975 22.9843L5.67211 15.4483C5.68651 15.3454 5.6577 15.2351 5.57849 15.1616L0.220833 9.82384C-0.211236 9.39006 0.0264022 8.64013 0.624098 8.5519L8.03408 7.44907C8.1349 7.43437 8.22851 7.3682 8.27172 7.27262L11.5843 0.412993C11.8507 -0.131071 12.6284 -0.131071 12.8949 0.420346Z" fill="url(#paint4_radial_879_13561)"/>
<path d="M12.8949 0.420346L16.2074 7.27997C16.2506 7.37555 16.3442 7.44172 16.445 7.45642L23.855 8.55926C24.4527 8.64748 24.6903 9.39741 24.2583 9.83119L19.0518 15.0072C18.879 15.1763 18.7998 15.4262 18.843 15.6689L20.0744 22.9843C20.1752 23.5946 19.5487 24.0577 19.0158 23.771L12.3836 20.2125C12.29 20.1611 12.1819 20.1611 12.0883 20.2125L5.45607 23.771C4.92319 24.0577 4.29669 23.5946 4.3975 22.9843L5.67211 15.4483C5.68651 15.3454 5.6577 15.2351 5.57849 15.1616L0.220833 9.82384C-0.211236 9.39006 0.0264022 8.64013 0.624098 8.5519L8.03408 7.44907C8.1349 7.43437 8.22851 7.3682 8.27172 7.27262L11.5843 0.412993C11.8507 -0.131071 12.6284 -0.131071 12.8949 0.420346Z" fill="url(#paint5_radial_879_13561)"/>
<path d="M11.5843 0.420346L8.27172 7.27997C8.22851 7.37555 8.1349 7.44172 8.03408 7.45642L0.624098 8.55926C0.0264022 8.64748 -0.211236 9.39741 0.220833 9.83119L5.42727 15.0072C5.60009 15.1763 5.67931 15.4262 5.6361 15.6689L4.4047 22.9843C4.30389 23.5946 4.93039 24.0577 5.46327 23.771L12.0955 20.2125C12.1891 20.1611 12.2972 20.1611 12.3908 20.2125L19.023 23.771C19.5559 24.0577 20.1824 23.5946 20.0816 22.9843L18.807 15.4483C18.7926 15.3454 18.8214 15.2351 18.9006 15.1616L24.2655 9.82384C24.6975 9.39006 24.4599 8.64013 23.8622 8.5519L16.4522 7.44907C16.3514 7.43437 16.2578 7.3682 16.2146 7.27262L12.9021 0.412993C12.6284 -0.131071 11.8507 -0.131071 11.5843 0.420346Z" fill="url(#paint6_radial_879_13561)"/>
<path d="M11.5843 0.420346L8.27172 7.27997C8.22851 7.37555 8.1349 7.44172 8.03408 7.45642L0.624098 8.55926C0.0264022 8.64748 -0.211236 9.39741 0.220833 9.83119L5.42727 15.0072C5.60009 15.1763 5.67931 15.4262 5.6361 15.6689L4.4047 22.9843C4.30389 23.5946 4.93039 24.0577 5.46327 23.771L12.0955 20.2125C12.1891 20.1611 12.2972 20.1611 12.3908 20.2125L19.023 23.771C19.5559 24.0577 20.1824 23.5946 20.0816 22.9843L18.807 15.4483C18.7926 15.3454 18.8214 15.2351 18.9006 15.1616L24.2655 9.82384C24.6975 9.39006 24.4599 8.64013 23.8622 8.5519L16.4522 7.44907C16.3514 7.43437 16.2578 7.3682 16.2146 7.27262L12.9021 0.412993C12.6284 -0.131071 11.8507 -0.131071 11.5843 0.420346Z" fill="url(#paint7_radial_879_13561)"/>
<path opacity="0.24" d="M11.5843 0.420346L8.27172 7.27997C8.22851 7.37555 8.1349 7.44172 8.03408 7.45642L0.624098 8.55926C0.0264022 8.64748 -0.211236 9.39741 0.220833 9.83119L5.42727 15.0072C5.60009 15.1763 5.67931 15.4262 5.6361 15.6689L4.4047 22.9843C4.30389 23.5946 4.93039 24.0577 5.46327 23.771L12.0955 20.2125C12.1891 20.1611 12.2972 20.1611 12.3908 20.2125L19.023 23.771C19.5559 24.0577 20.1824 23.5946 20.0816 22.9843L18.807 15.4483C18.7926 15.3454 18.8214 15.2351 18.9006 15.1616L24.2655 9.82384C24.6975 9.39006 24.4599 8.64013 23.8622 8.5519L16.4522 7.44907C16.3514 7.43437 16.2578 7.3682 16.2146 7.27262L12.9021 0.412993C12.6284 -0.131071 11.8507 -0.131071 11.5843 0.420346Z" fill="url(#paint8_radial_879_13561)"/>
<path opacity="0.24" d="M11.5843 0.420346L8.27172 7.27997C8.22851 7.37555 8.1349 7.44172 8.03408 7.45642L0.624098 8.55926C0.0264022 8.64748 -0.211236 9.39741 0.220833 9.83119L5.42727 15.0072C5.60009 15.1763 5.67931 15.4262 5.6361 15.6689L4.4047 22.9843C4.30389 23.5946 4.93039 24.0577 5.46327 23.771L12.0955 20.2125C12.1891 20.1611 12.2972 20.1611 12.3908 20.2125L19.023 23.771C19.5559 24.0577 20.1824 23.5946 20.0816 22.9843L18.807 15.4483C18.7926 15.3454 18.8214 15.2351 18.9006 15.1616L24.2655 9.82384C24.6975 9.39006 24.4599 8.64013 23.8622 8.5519L16.4522 7.44907C16.3514 7.43437 16.2578 7.3682 16.2146 7.27262L12.9021 0.412993C12.6284 -0.131071 11.8507 -0.131071 11.5843 0.420346Z" fill="url(#paint9_radial_879_13561)"/>
<path d="M0.623585 8.55883L8.03357 7.456C8.13439 7.44129 8.228 7.37512 8.27121 7.27954L11.5837 0.419922C11.5837 0.419922 11.8862 0.802237 11.2021 2.25798C10.7556 3.20641 9.58182 5.8238 8.94092 7.17661C8.58086 7.94124 8.03357 7.95595 7.20544 8.06623L1.73256 8.7794C1.73976 8.78675 1.13487 8.83822 0.623585 8.55883Z" fill="url(#paint10_radial_879_13561)"/>
<path opacity="0.5" d="M12.8949 0.420346L16.2074 7.27997C16.2506 7.37555 16.3442 7.44172 16.445 7.45642L23.855 8.55926C24.4527 8.64748 24.6903 9.39741 24.2583 9.83119L19.0518 15.0072C18.879 15.1763 18.7998 15.4262 18.843 15.6689L20.0744 22.9843C20.1752 23.5946 19.5487 24.0577 19.0158 23.771L12.3836 20.2125C12.29 20.1611 12.1819 20.1611 12.0883 20.2125L5.45607 23.771C4.92319 24.0577 4.29669 23.5946 4.3975 22.9843L5.67211 15.4483C5.68651 15.3454 5.6577 15.2351 5.57849 15.1616L0.220833 9.82384C-0.211236 9.39006 0.0264022 8.64013 0.624098 8.5519L8.03408 7.44907C8.1349 7.43437 8.22851 7.3682 8.27172 7.27262L11.5843 0.412993C11.8507 -0.131071 12.6284 -0.131071 12.8949 0.420346Z" fill="url(#paint11_radial_879_13561)"/>
<path d="M20.0744 22.9849L18.843 15.6694C18.7998 15.4268 18.879 15.1842 19.0518 15.0077L24.2582 9.82441C24.6903 9.39063 24.4527 8.6407 23.855 8.55247L16.445 7.44964C16.3442 7.43493 16.2505 7.36877 16.2073 7.27319L12.8948 0.413563C12.6284 -0.137854 11.8578 -0.137854 11.5842 0.413563L8.27167 7.27319C8.22846 7.36877 8.13485 7.43493 8.03403 7.44964L0.624044 8.55247C0.0263488 8.6407 -0.211289 9.39063 0.22078 9.82441L5.58564 15.1621C5.65765 15.2356 5.69366 15.3459 5.67925 15.4489L4.40465 22.9849C4.30383 23.5951 4.93033 24.0583 5.46322 23.7716L12.0955 20.2131C12.1891 20.1616 12.2971 20.1616 12.3907 20.2131L19.023 23.7716C19.5487 24.0583 20.1752 23.5951 20.0744 22.9849ZM19.5415 23.3672C19.4911 23.404 19.3686 23.4775 19.2102 23.3893L12.5852 19.8308C12.4771 19.772 12.3619 19.7426 12.2467 19.7426C12.1315 19.7426 12.0163 19.772 11.9082 19.8308L5.28319 23.3893C5.12476 23.4701 5.00235 23.3966 4.95194 23.3672C4.90153 23.3304 4.79351 23.2275 4.82952 23.0511L6.08252 15.5224C6.12572 15.2798 6.04651 15.0371 5.87368 14.8607L0.508826 9.52297C0.379205 9.39798 0.40801 9.25093 0.429613 9.19212C0.451217 9.1333 0.508826 9.00096 0.681654 8.97155L8.09164 7.86872C8.32928 7.83195 8.53811 7.67756 8.63893 7.46434L11.9515 0.60472C12.0307 0.442971 12.1747 0.428267 12.2323 0.428267C12.2899 0.428267 12.4339 0.442971 12.5131 0.60472L15.8257 7.46434C15.9337 7.68491 16.1353 7.83931 16.373 7.86872L23.7829 8.97155C23.9558 9.00096 24.0206 9.1333 24.035 9.19212C24.0566 9.25093 24.0854 9.39798 23.9558 9.52297L18.7493 14.7063C18.4829 14.971 18.3605 15.3606 18.4181 15.7356L19.6495 23.0511C19.6927 23.2349 19.5847 23.3378 19.5415 23.3672Z" fill="url(#paint12_radial_879_13561)"/>
<defs>
<radialGradient id="paint0_radial_879_13561" cx="0" cy="0" r="1" gradientUnits="userSpaceOnUse" gradientTransform="translate(11.6308 9.44593) scale(11.9636 12.2145)">
<stop stop-color="#FFE343"/>
<stop offset="0.5492" stop-color="#FFE241"/>
<stop offset="0.7469" stop-color="#FFDF3A"/>
<stop offset="0.8874" stop-color="#FEDA2F"/>
<stop offset="1" stop-color="#FED31E"/>
</radialGradient>
<radialGradient id="paint1_radial_879_13561" cx="0" cy="0" r="1" gradientUnits="userSpaceOnUse" gradientTransform="translate(2.78302 14.2669) rotate(-40.0706) scale(2.23153 6.0315)">
<stop stop-color="#D86D00"/>
<stop offset="0.3292" stop-color="#DC6C0A" stop-opacity="0.6708"/>
<stop offset="0.8792" stop-color="#E86823" stop-opacity="0.1208"/>
<stop offset="1" stop-color="#EB672A" stop-opacity="0"/>
</radialGradient>
<radialGradient id="paint2_radial_879_13561" cx="0" cy="0" r="1" gradientUnits="userSpaceOnUse" gradientTransform="translate(21.4158 14.5971) rotate(-139.929) scale(2.23153 6.0315)">
<stop stop-color="#D86D00"/>
<stop offset="0.3292" stop-color="#DC6C0A" stop-opacity="0.6708"/>
<stop offset="0.8792" stop-color="#E86823" stop-opacity="0.1208"/>
<stop offset="1" stop-color="#EB672A" stop-opacity="0"/>
</radialGradient>
<radialGradient id="paint3_radial_879_13561" cx="0" cy="0" r="1" gradientUnits="userSpaceOnUse" gradientTransform="translate(19.8367 2.51796) rotate(47.4206) scale(8.76179 6.02141)">
<stop stop-color="#ED9900"/>
<stop offset="1" stop-color="#ED9900" stop-opacity="0"/>
</radialGradient>
<radialGradient id="paint4_radial_879_13561" cx="0" cy="0" r="1" gradientUnits="userSpaceOnUse" gradientTransform="translate(11.3101 8.15125) rotate(-42.0031) scale(6.94681 3.81592)">
<stop stop-color="#FFEC5F"/>
<stop offset="1" stop-color="#FFEC5F" stop-opacity="0"/>
</radialGradient>
<radialGradient id="paint5_radial_879_13561" cx="0" cy="0" r="1" gradientUnits="userSpaceOnUse" gradientTransform="translate(9.24546 23.846) rotate(-26.7974) scale(6.60548 3.16977)">
<stop stop-color="#D86D00"/>
<stop offset="0.3292" stop-color="#DC6C0A" stop-opacity="0.6708"/>
<stop offset="0.8792" stop-color="#E86823" stop-opacity="0.1208"/>
<stop offset="1" stop-color="#EB672A" stop-opacity="0"/>
</radialGradient>
<radialGradient id="paint6_radial_879_13561" cx="0" cy="0" r="1" gradientUnits="userSpaceOnUse" gradientTransform="translate(15.1606 24.0352) rotate(-153.203) scale(6.60548 3.16977)">
<stop stop-color="#D86D00"/>
<stop offset="0.3292" stop-color="#DC6C0A" stop-opacity="0.6708"/>
<stop offset="0.8792" stop-color="#E86823" stop-opacity="0.1208"/>
<stop offset="1" stop-color="#EB672A" stop-opacity="0"/>
</radialGradient>
<radialGradient id="paint7_radial_879_13561" cx="0" cy="0" r="1" gradientUnits="userSpaceOnUse" gradientTransform="translate(12.2331 27.6118) rotate(177.168) scale(8.7023 9.10813)">
<stop stop-color="#D86D00"/>
<stop offset="0.3292" stop-color="#DC6C0A" stop-opacity="0.6708"/>
<stop offset="0.8792" stop-color="#E86823" stop-opacity="0.1208"/>
<stop offset="1" stop-color="#EB672A" stop-opacity="0"/>
</radialGradient>
<radialGradient id="paint8_radial_879_13561" cx="0" cy="0" r="1" gradientUnits="userSpaceOnUse" gradientTransform="translate(15.17 17.7811) rotate(158.047) scale(9.22159 7.07682)">
<stop stop-color="#D86D00"/>
<stop offset="0.3292" stop-color="#DC6C0A" stop-opacity="0.6708"/>
<stop offset="0.8792" stop-color="#E86823" stop-opacity="0.1208"/>
<stop offset="1" stop-color="#EB672A" stop-opacity="0"/>
</radialGradient>
<radialGradient id="paint9_radial_879_13561" cx="0" cy="0" r="1" gradientUnits="userSpaceOnUse" gradientTransform="translate(11.2803 9.14823) rotate(158.047) scale(5.55608 4.26384)">
<stop stop-color="white"/>
<stop offset="1" stop-color="white" stop-opacity="0"/>
</radialGradient>
<radialGradient id="paint10_radial_879_13561" cx="0" cy="0" r="1" gradientUnits="userSpaceOnUse" gradientTransform="translate(4.64245 2.51701) rotate(132.579) scale(8.76179 6.02141)">
<stop stop-color="#ED9900"/>
<stop offset="1" stop-color="#ED9900" stop-opacity="0"/>
</radialGradient>
<radialGradient id="paint11_radial_879_13561" cx="0" cy="0" r="1" gradientUnits="userSpaceOnUse" gradientTransform="translate(12.3748 12.5537) scale(14.2638 14.563)">
<stop stop-color="#FF8000" stop-opacity="0"/>
<stop offset="0.5434" stop-color="#FD7F00" stop-opacity="0.5434"/>
<stop offset="0.7391" stop-color="#F67C00" stop-opacity="0.7391"/>
<stop offset="0.8781" stop-color="#EB7600" stop-opacity="0.8781"/>
<stop offset="0.9903" stop-color="#DA6E00" stop-opacity="0.9903"/>
<stop offset="1" stop-color="#D86D00"/>
</radialGradient>
<radialGradient id="paint12_radial_879_13561" cx="0" cy="0" r="1" gradientUnits="userSpaceOnUse" gradientTransform="translate(12.2395 13.024) scale(12.3257 12.5843)">
<stop stop-color="#A3541E" stop-opacity="0.5"/>
<stop offset="0.5109" stop-color="#A5551D" stop-opacity="0.7555"/>
<stop offset="0.695" stop-color="#AC5819" stop-opacity="0.8475"/>
<stop offset="0.8261" stop-color="#B75E12" stop-opacity="0.9131"/>
<stop offset="0.9315" stop-color="#C86609" stop-opacity="0.9657"/>
<stop offset="1" stop-color="#D86D00"/>
</radialGradient>
</defs>
</svg>
