<svg width="102" height="109" viewBox="0 0 102 109" fill="none" xmlns="http://www.w3.org/2000/svg">
<path d="M115.128 30.2248L116.151 30.6016C105.762 55.3922 75.9011 67.5948 49.4541 57.857C59.7106 33.3814 88.9391 21.1714 115.128 30.2248Z" fill="#559BEF"/>
<path d="M32.7455 0.998497L33.1474 0.0394532C59.5944 9.77734 72.6124 37.7682 62.2239 62.5588C36.1129 52.9447 23.0871 25.5468 32.7455 0.998497Z" fill="#559BEF"/>
<path d="M1.56638 78.221L0.543256 77.8443C10.9318 53.0536 40.7928 40.851 67.2399 50.5889C56.9834 75.0645 27.7549 87.2745 1.56638 78.221Z" fill="#559BEF"/>
<path d="M83.9485 107.447L83.5466 108.406C57.0996 98.6685 44.0816 70.6776 54.4701 45.887C80.5811 55.5011 93.6069 82.899 83.9485 107.447Z" fill="#559BEF"/>
</svg>
