<svg width="136" height="41" viewBox="0 0 136 41" fill="none" xmlns="http://www.w3.org/2000/svg">
<path d="M60.9141 5.38565V18.4766H58.9453V7.07315H52.7834V18.4766H50.8146V5.38565H60.9141ZM63.7809 22.1584V8.65838H65.6474V10.25H65.8072C65.918 10.0455 66.0778 9.80895 66.2866 9.54048C66.4954 9.27202 66.7852 9.03764 67.1559 8.83736C67.5266 8.63281 68.0167 8.53054 68.6261 8.53054C69.4187 8.53054 70.1261 8.73082 70.7482 9.13139C71.3704 9.53196 71.8583 10.1094 72.212 10.8636C72.57 11.6179 72.7489 12.5256 72.7489 13.5866C72.7489 14.6477 72.5721 15.5575 72.2184 16.3161C71.8647 17.0703 71.3789 17.652 70.761 18.0611C70.1431 18.4659 69.4379 18.6683 68.6452 18.6683C68.0487 18.6683 67.5607 18.5682 67.1815 18.3679C66.8065 18.1676 66.5124 17.9332 66.2994 17.6648C66.0863 17.3963 65.9222 17.1577 65.8072 16.9489H65.6921V22.1584H63.7809ZM65.6538 13.5675C65.6538 14.2578 65.7539 14.8629 65.9542 15.3828C66.1545 15.9027 66.4442 16.3097 66.8235 16.6037C67.2028 16.8935 67.6673 17.0384 68.217 17.0384C68.788 17.0384 69.2653 16.8871 69.6488 16.5845C70.0323 16.2777 70.3221 15.8622 70.5181 15.3381C70.7184 14.8139 70.8185 14.2237 70.8185 13.5675C70.8185 12.9197 70.7205 12.3381 70.5245 11.8224C70.3327 11.3068 70.043 10.8999 69.6552 10.6016C69.2717 10.3033 68.7923 10.1541 68.217 10.1541C67.663 10.1541 67.1942 10.2969 66.8107 10.5824C66.4315 10.8679 66.1438 11.2663 65.9478 11.7777C65.7518 12.2891 65.6538 12.8857 65.6538 13.5675ZM79.0259 18.6747C78.1055 18.6747 77.3022 18.4638 76.6161 18.0419C75.93 17.62 75.3974 17.0298 75.0181 16.2713C74.6388 15.5128 74.4492 14.6264 74.4492 13.6122C74.4492 12.5937 74.6388 11.7031 75.0181 10.9403C75.3974 10.1776 75.93 9.58523 76.6161 9.16335C77.3022 8.74148 78.1055 8.53054 79.0259 8.53054C79.9464 8.53054 80.7496 8.74148 81.4357 9.16335C82.1218 9.58523 82.6545 10.1776 83.0337 10.9403C83.413 11.7031 83.6026 12.5937 83.6026 13.6122C83.6026 14.6264 83.413 15.5128 83.0337 16.2713C82.6545 17.0298 82.1218 17.62 81.4357 18.0419C80.7496 18.4638 79.9464 18.6747 79.0259 18.6747ZM79.0323 17.0703C79.6289 17.0703 80.1232 16.9126 80.5153 16.5973C80.9073 16.282 81.1971 15.8622 81.3846 15.3381C81.5763 14.8139 81.6722 14.2365 81.6722 13.6058C81.6722 12.9794 81.5763 12.4041 81.3846 11.88C81.1971 11.3516 80.9073 10.9276 80.5153 10.608C80.1232 10.2884 79.6289 10.1286 79.0323 10.1286C78.4315 10.1286 77.9329 10.2884 77.5366 10.608C77.1445 10.9276 76.8526 11.3516 76.6609 11.88C76.4734 12.4041 76.3796 12.9794 76.3796 13.6058C76.3796 14.2365 76.4734 14.8139 76.6609 15.3381C76.8526 15.8622 77.1445 16.282 77.5366 16.5973C77.9329 16.9126 78.4315 17.0703 79.0323 17.0703ZM84.7772 21.3082V16.821H85.5762C85.7807 16.6335 85.9533 16.4098 86.0939 16.1499C86.2388 15.8899 86.3603 15.581 86.4583 15.223C86.5605 14.8651 86.6458 14.4474 86.714 13.9702C86.7821 13.4886 86.8418 12.9389 86.8929 12.321L87.1998 8.65838H93.873V16.821H95.3816V21.3082H93.5151V18.4766H86.6692V21.3082H84.7772ZM87.6216 16.821H92.0066V10.2947H88.9128L88.7083 12.321C88.6103 13.3523 88.4867 14.2472 88.3375 15.0057C88.1884 15.7599 87.9498 16.3651 87.6216 16.821ZM100.107 18.6939C99.4847 18.6939 98.9222 18.5788 98.4194 18.3487C97.9165 18.1143 97.5181 17.7756 97.2241 17.3324C96.9343 16.8892 96.7894 16.3459 96.7894 15.7024C96.7894 15.1484 96.896 14.6925 97.109 14.3345C97.3221 13.9766 97.6097 13.6932 97.9719 13.4844C98.3342 13.2756 98.739 13.1179 99.1864 13.0114C99.6339 12.9048 100.09 12.8239 100.554 12.7685C101.142 12.7003 101.62 12.6449 101.986 12.6023C102.353 12.5554 102.619 12.4808 102.785 12.3786C102.951 12.2763 103.034 12.1101 103.034 11.88V11.8352C103.034 11.277 102.877 10.8445 102.561 10.5376C102.25 10.2308 101.786 10.0774 101.168 10.0774C100.525 10.0774 100.017 10.2202 99.6467 10.5057C99.2802 10.7869 99.0266 11.1001 98.886 11.4453L97.0898 11.0362C97.3029 10.4396 97.614 9.9581 98.0231 9.59162C98.4364 9.22088 98.9116 8.95241 99.4485 8.78622C99.9854 8.61577 100.55 8.53054 101.142 8.53054C101.534 8.53054 101.95 8.57741 102.389 8.67116C102.832 8.76065 103.245 8.92685 103.629 9.16974C104.017 9.41264 104.334 9.75994 104.581 10.2116C104.828 10.6591 104.952 11.2408 104.952 11.9567V18.4766H103.086V17.1342H103.009C102.885 17.3814 102.7 17.6243 102.453 17.8629C102.206 18.1016 101.888 18.2997 101.5 18.4574C101.113 18.6151 100.648 18.6939 100.107 18.6939ZM100.522 17.1598C101.051 17.1598 101.502 17.0554 101.877 16.8466C102.257 16.6378 102.544 16.3651 102.74 16.0284C102.941 15.6875 103.041 15.3232 103.041 14.9354V13.6697C102.973 13.7379 102.841 13.8018 102.645 13.8615C102.453 13.9169 102.233 13.9659 101.986 14.0085C101.739 14.0469 101.498 14.0831 101.264 14.1172C101.029 14.147 100.833 14.1726 100.676 14.1939C100.305 14.2408 99.9663 14.3196 99.6594 14.4304C99.3569 14.5412 99.114 14.701 98.9308 14.9098C98.7518 15.1143 98.6623 15.3871 98.6623 15.728C98.6623 16.201 98.837 16.5589 99.1864 16.8018C99.5359 17.0405 99.9812 17.1598 100.522 17.1598ZM113.008 16.1115L116.178 8.65838H117.827L113.717 18.4766H112.298L108.271 8.65838H109.901L113.008 16.1115ZM109.371 8.65838V18.4766H107.498V8.65838H109.371ZM116.696 18.4766V8.65838H118.556V18.4766H116.696ZM62.0518 33.9311C62.0518 35.3288 61.7962 36.5305 61.2848 37.5362C60.7734 38.5376 60.0724 39.3089 59.1818 39.8501C58.2955 40.3871 57.2876 40.6555 56.1584 40.6555C55.0249 40.6555 54.0128 40.3871 53.1222 39.8501C52.2358 39.3089 51.5369 38.5355 51.0256 37.5298C50.5142 36.5241 50.2585 35.3246 50.2585 33.9311C50.2585 32.5334 50.5142 31.3338 51.0256 30.3324C51.5369 29.3267 52.2358 28.5554 53.1222 28.0185C54.0128 27.4773 55.0249 27.2067 56.1584 27.2067C57.2876 27.2067 58.2955 27.4773 59.1818 28.0185C60.0724 28.5554 60.7734 29.3267 61.2848 30.3324C61.7962 31.3338 62.0518 32.5334 62.0518 33.9311ZM60.0959 33.9311C60.0959 32.8658 59.9233 31.9687 59.5781 31.2401C59.2372 30.5071 58.7685 29.9531 58.1719 29.5781C57.5795 29.1989 56.9084 29.0092 56.1584 29.0092C55.4041 29.0092 54.7308 29.1989 54.1385 29.5781C53.5462 29.9531 53.0774 30.5071 52.7322 31.2401C52.3913 31.9687 52.2209 32.8658 52.2209 33.9311C52.2209 34.9964 52.3913 35.8956 52.7322 36.6286C53.0774 37.3572 53.5462 37.9112 54.1385 38.2905C54.7308 38.6655 55.4041 38.853 56.1584 38.853C56.9084 38.853 57.5795 38.6655 58.1719 38.2905C58.7685 37.9112 59.2372 37.3572 59.5781 36.6286C59.9233 35.8956 60.0959 34.9964 60.0959 33.9311ZM71.0151 34.7429V36.3984H65.6969V34.7429H71.0151ZM66.2338 30.6584V40.4766H64.361V30.6584H66.2338ZM72.351 30.6584V40.4766H70.4846V30.6584H72.351ZM74.1344 40.4766L74.128 38.821H74.4796C74.7523 38.821 74.9803 38.7635 75.1635 38.6484C75.351 38.5291 75.5044 38.3288 75.6238 38.0476C75.7431 37.7663 75.8347 37.3786 75.8986 36.8842C75.9625 36.3857 76.0094 35.7592 76.0392 35.005L76.2118 30.6584H83.0641V40.4766H81.1912V32.3075H77.9824L77.829 35.6442C77.7907 36.4538 77.7076 37.1612 77.5797 37.7663C77.4561 38.3714 77.275 38.8764 77.0364 39.2812C76.7978 39.6818 76.4909 39.9822 76.1159 40.1825C75.7409 40.3786 75.285 40.4766 74.748 40.4766H74.1344ZM88.4702 40.6939C87.848 40.6939 87.2855 40.5788 86.7827 40.3487C86.2798 40.1143 85.8814 39.7756 85.5874 39.3324C85.2976 38.8892 85.1527 38.3459 85.1527 37.7024C85.1527 37.1484 85.2592 36.6925 85.4723 36.3345C85.6854 35.9766 85.973 35.6932 86.3352 35.4844C86.6974 35.2756 87.1023 35.1179 87.5497 35.0114C87.9972 34.9048 88.4531 34.8239 88.9176 34.7685C89.5057 34.7003 89.983 34.6449 90.3494 34.6023C90.7159 34.5554 90.9822 34.4808 91.1484 34.3786C91.3146 34.2763 91.3977 34.1101 91.3977 33.88V33.8352C91.3977 33.277 91.2401 32.8445 90.9247 32.5376C90.6136 32.2308 90.1491 32.0774 89.5312 32.0774C88.8878 32.0774 88.3807 32.2202 88.0099 32.5057C87.6435 32.7869 87.3899 33.1001 87.2493 33.4453L85.4531 33.0362C85.6662 32.4396 85.9773 31.9581 86.3864 31.5916C86.7997 31.2209 87.2749 30.9524 87.8118 30.7862C88.3487 30.6158 88.9134 30.5305 89.5057 30.5305C89.8977 30.5305 90.3132 30.5774 90.7521 30.6712C91.1953 30.7607 91.6087 30.9268 91.9922 31.1697C92.38 31.4126 92.6974 31.7599 92.9446 32.2116C93.1918 32.6591 93.3153 33.2408 93.3153 33.9567V40.4766H91.4489V39.1342H91.3722C91.2486 39.3814 91.0632 39.6243 90.8161 39.8629C90.5689 40.1016 90.2514 40.2997 89.8636 40.4574C89.4759 40.6151 89.0114 40.6939 88.4702 40.6939ZM88.8857 39.1598C89.4141 39.1598 89.8658 39.0554 90.2408 38.8466C90.62 38.6378 90.9077 38.3651 91.1037 38.0284C91.304 37.6875 91.4041 37.3232 91.4041 36.9354V35.6697C91.3359 35.7379 91.2038 35.8018 91.0078 35.8615C90.8161 35.9169 90.5966 35.9659 90.3494 36.0085C90.1023 36.0469 89.8615 36.0831 89.6271 36.1172C89.3928 36.147 89.1967 36.1726 89.0391 36.1939C88.6683 36.2408 88.3295 36.3196 88.0227 36.4304C87.7202 36.5412 87.4773 36.701 87.294 36.9098C87.1151 37.1143 87.0256 37.3871 87.0256 37.728C87.0256 38.201 87.2003 38.5589 87.5497 38.8018C87.8991 39.0405 88.3445 39.1598 88.8857 39.1598ZM97.7338 37.7983L102.061 30.6584H104.119V40.4766H102.247V33.3303L97.9384 40.4766H95.861V30.6584H97.7338V37.7983ZM101.243 27.3345H102.816C102.816 28.0547 102.56 28.6406 102.048 29.0923C101.541 29.5398 100.855 29.7635 99.9902 29.7635C99.1294 29.7635 98.4455 29.5398 97.9384 29.0923C97.4313 28.6406 97.1777 28.0547 97.1777 27.3345H98.7438C98.7438 27.6541 98.8375 27.9375 99.025 28.1847C99.2125 28.4276 99.5343 28.549 99.9902 28.549C100.438 28.549 100.757 28.4276 100.949 28.1847C101.145 27.9418 101.243 27.6584 101.243 27.3345ZM113.343 34.7429V36.3984H108.025V34.7429H113.343ZM108.562 30.6584V40.4766H106.689V30.6584H108.562ZM114.679 30.6584V40.4766H112.813V30.6584H114.679Z" fill="#133966"/>
<path d="M37.1648 7.46281C37.1648 5.81679 35.8304 4.48242 34.1844 4.48242H14.9047C6.6746 4.48242 0.00275421 11.1543 0.00275421 19.3844V33.2785C0.00275421 34.9245 1.33712 36.2589 2.98315 36.2589H34.1844C35.8304 36.2589 37.1648 34.9245 37.1648 33.2785V7.46281Z" fill="url(#paint0_linear_879_14327)"/>
<defs>
<linearGradient id="paint0_linear_879_14327" x1="18.5838" y1="4.48242" x2="18.5838" y2="36.2589" gradientUnits="userSpaceOnUse">
<stop stop-color="#5599EE"/>
<stop offset="1" stop-color="#5599EE" stop-opacity="0"/>
</linearGradient>
</defs>
</svg>
