<svg width="13" height="9" viewBox="0 0 13 9" fill="none" xmlns="http://www.w3.org/2000/svg">
<path d="M12.7287 1.40589C12.6547 1.13365 12.5096 0.885389 12.3079 0.685943C12.1063 0.486498 11.8551 0.342867 11.5796 0.269427C10.5654 5.96046e-08 6.5 0 6.5 0C6.5 0 2.4346 -5.96046e-08 1.42042 0.267994C1.14478 0.341196 0.893496 0.484747 0.691794 0.684229C0.490093 0.883711 0.345079 1.1321 0.271317 1.40446C-5.96046e-08 2.40764 0 4.5 0 4.5C0 4.5 -5.96046e-08 6.59236 0.271317 7.59411C0.420759 8.14729 0.86183 8.58296 1.42042 8.73057C2.4346 9 6.5 9 6.5 9C6.5 9 10.5654 9 11.5796 8.73057C12.1396 8.58296 12.5792 8.14729 12.7287 7.59411C13 6.59236 13 4.5 13 4.5C13 4.5 13 2.40764 12.7287 1.40589ZM5.20871 6.42038V2.57962L8.57478 4.48567L5.20871 6.42038Z" fill="#559BEF"/>
</svg>
