<svg width="14" height="14" viewBox="0 0 14 14" fill="none" xmlns="http://www.w3.org/2000/svg">
<g clip-path="url(#clip0_2018_19777)">
<path d="M10.8436 8.81408e-05H3.15642C2.32677 -0.00613093 1.52852 0.316979 0.936793 0.898539C0.345063 1.4801 0.00816375 2.27262 0 3.10225L0 4.18959C0 4.42165 0.0921872 4.64421 0.256282 4.80831C0.420376 4.9724 0.642936 5.06459 0.875 5.06459C1.10706 5.06459 1.32962 4.9724 1.49372 4.80831C1.65781 4.64421 1.75 4.42165 1.75 4.18959V3.10225C1.75781 2.73665 1.91022 2.38904 2.17384 2.1356C2.43746 1.88215 2.79078 1.74352 3.15642 1.75009H10.8436C11.2092 1.74352 11.5625 1.88215 11.8262 2.1356C12.0898 2.38904 12.2422 2.73665 12.25 3.10225V10.8979C12.2422 11.2635 12.0898 11.6111 11.8262 11.8646C11.5625 12.118 11.2092 12.2567 10.8436 12.2501H3.15642C2.79078 12.2567 2.43746 12.118 2.17384 11.8646C1.91022 11.6111 1.75781 11.2635 1.75 10.8979V9.81059C1.75 9.57852 1.65781 9.35596 1.49372 9.19187C1.32962 9.02778 1.10706 8.93559 0.875 8.93559C0.642936 8.93559 0.420376 9.02778 0.256282 9.19187C0.0921872 9.35596 0 9.57852 0 9.81059L0 10.8979C0.00816375 11.7276 0.345063 12.5201 0.936793 13.1016C1.52852 13.6832 2.32677 14.0063 3.15642 14.0001H10.8436C11.6732 14.0063 12.4715 13.6832 13.0632 13.1016C13.6549 12.5201 13.9918 11.7276 14 10.8979V3.10225C13.9918 2.27262 13.6549 1.4801 13.0632 0.898539C12.4715 0.316979 11.6732 -0.00613093 10.8436 8.81408e-05Z" fill="#7A7FAA"/>
<path d="M2.04169 7.00007C2.04169 7.23214 2.13387 7.4547 2.29797 7.61879C2.46206 7.78289 2.68462 7.87507 2.91669 7.87507L8.73544 7.85932L6.7136 9.88116C6.54946 10.0452 6.45721 10.2678 6.45715 10.4999C6.4571 10.732 6.54924 10.9546 6.71331 11.1187C6.87738 11.2828 7.09994 11.3751 7.33202 11.3751C7.56411 11.3752 7.78671 11.2831 7.95085 11.119L10.626 8.44382C10.8156 8.25424 10.966 8.02915 11.0687 7.78143C11.1713 7.53371 11.2241 7.26821 11.2241 7.00007C11.2241 6.73194 11.1713 6.46643 11.0687 6.21871C10.966 5.97099 10.8156 5.74591 10.626 5.55632L7.95319 2.88116C7.87191 2.79992 7.77543 2.73548 7.66925 2.69153C7.56307 2.64758 7.44927 2.62497 7.33436 2.625C7.21944 2.62503 7.10565 2.64769 6.9995 2.69169C6.89334 2.73569 6.79688 2.80017 6.71565 2.88145C6.55158 3.0456 6.45943 3.2682 6.45949 3.50028C6.45952 3.6152 6.48218 3.72898 6.52618 3.83514C6.57018 3.9413 6.63466 4.03775 6.71594 4.11899L8.70685 6.10932L2.91669 6.12507C2.68462 6.12507 2.46206 6.21726 2.29797 6.38136C2.13387 6.54545 2.04169 6.76801 2.04169 7.00007Z" fill="#7A7FAA"/>
</g>
<defs>
<clipPath id="clip0_2018_19777">
<rect width="14" height="14" fill="white"/>
</clipPath>
</defs>
</svg>
