<svg width="23" height="23" viewBox="0 0 23 23" fill="none" xmlns="http://www.w3.org/2000/svg">
<path d="M4.78852 12.332H18.2112C19.6577 12.332 20.8418 13.4713 20.8418 14.8656C20.8418 16.2582 19.6577 17.3992 18.2112 17.3992H4.78852C3.34203 17.3992 2.15789 16.26 2.15789 14.8656C2.15609 13.4713 3.34023 12.332 4.78852 12.332Z" fill="#E59600"/>
<path d="M4.35521 5.8907C6.08201 3.26367 8.30834 2.36523 11.5427 2.36523C14.7771 2.36523 17.0034 3.26187 18.7302 5.8907C19.9952 7.81695 20.3007 10.8447 19.9108 13.9641C19.5352 16.963 19.2244 18.609 17.3628 20.2891C15.7456 21.7481 13.5498 22.0626 11.6667 22.0626H11.4187C9.5356 22.0626 7.33802 21.7481 5.72263 20.2891C3.86107 18.609 3.55021 16.963 3.17466 13.9641C2.78474 10.8447 3.09021 7.81516 4.35521 5.8907Z" fill="#FFCA28"/>
<path d="M8.86715 6.17703C8.84199 6.15008 8.81684 6.12492 8.79168 6.09797C8.77371 6.0782 8.75574 6.05664 8.73777 6.03687C8.69644 5.98836 8.65691 5.93984 8.61918 5.88953L8.60301 5.86797C8.56707 5.81945 8.53473 5.76914 8.50238 5.71703C8.4934 5.70266 8.48441 5.68648 8.47543 5.67211C8.44488 5.62 8.41434 5.56789 8.38559 5.51219C8.3802 5.5032 8.3766 5.49602 8.37301 5.48703C8.30473 5.35227 8.24543 5.20672 8.19691 5.05398L8.19152 5.03781C8.09269 4.71977 8.0352 4.36578 8.0352 3.96687C8.0352 3.16906 8.3227 2.53836 8.76113 2.06219C8.76652 2.0568 8.77012 2.0532 8.77371 2.04781C8.80785 2.01187 8.84379 1.97594 8.87973 1.94L8.90129 1.91844C8.94311 1.87866 8.98626 1.84031 9.03066 1.80344C9.0666 1.77289 9.10254 1.74414 9.13848 1.71539C9.14746 1.7082 9.15645 1.70281 9.16363 1.69562L9.28223 1.60938C9.28941 1.60578 9.2948 1.60039 9.30199 1.5968C9.44574 1.49977 9.59488 1.41352 9.74941 1.33984C9.75481 1.33625 9.76199 1.33445 9.76738 1.33086C9.8123 1.3093 9.85723 1.28953 9.90215 1.26977L9.94348 1.2518C9.98301 1.23562 10.0225 1.21945 10.0621 1.20508C10.0764 1.19969 10.0926 1.1943 10.107 1.18891C10.1447 1.17453 10.1825 1.16195 10.2184 1.14938L10.2669 1.1332C10.3046 1.12062 10.3406 1.10984 10.3783 1.09906C10.3945 1.09367 10.4107 1.09008 10.4286 1.08469C10.4664 1.07391 10.5041 1.06492 10.5418 1.05594L10.5886 1.04516C10.6299 1.03617 10.6712 1.02719 10.7107 1.0182C10.7233 1.01641 10.7359 1.01281 10.7485 1.01102C10.8545 0.987656 10.9605 0.971484 11.0665 0.958906C11.0809 0.957109 11.0953 0.957109 11.1096 0.955313C11.1474 0.951719 11.1833 0.948125 11.2211 0.946328C11.2426 0.944531 11.2624 0.944531 11.2839 0.942734C11.3145 0.940937 11.3432 0.939141 11.372 0.939141C11.3954 0.939141 11.4187 0.937344 11.4439 0.937344C11.46 0.937344 11.4762 0.935547 11.4906 0.935547H11.5086C11.5858 0.935547 11.6631 0.939141 11.7386 0.944531C11.7529 0.946328 11.7673 0.946328 11.7817 0.948125C11.8589 0.955313 11.9344 0.9625 12.0063 0.975078C12.8886 1.11883 13.6019 1.58242 14.0475 2.03523C14.3153 2.30656 14.486 2.5743 14.5381 2.76656H14.5363C13.9649 2.62102 13.2264 2.49344 12.4034 2.45031C11.2893 2.37305 10.3586 3.00734 10.4035 3.98125C10.4089 4.09805 10.4232 4.20766 10.443 4.31008L10.4484 4.34063C10.4574 4.38016 10.4682 4.41969 10.4789 4.45742C10.4843 4.47539 10.4897 4.49336 10.4933 4.50953C10.5041 4.54187 10.5149 4.57422 10.5275 4.60656C10.5346 4.62633 10.5436 4.64609 10.5526 4.66586C10.5652 4.69461 10.5778 4.72156 10.5904 4.74672C10.6011 4.76828 10.6119 4.78805 10.6245 4.80781C10.6371 4.83117 10.6514 4.85453 10.6658 4.87609C10.6802 4.89766 10.6964 4.91922 10.7107 4.94078C10.7233 4.95875 10.7359 4.97672 10.7503 4.99469C10.7736 5.02344 10.7988 5.05039 10.8239 5.07555C10.8311 5.08273 10.8383 5.09172 10.8455 5.09891C10.8796 5.13305 10.9156 5.16359 10.9533 5.19414C10.9605 5.19953 10.9695 5.20492 10.9767 5.21031C11.0073 5.23409 11.0391 5.25628 11.0719 5.2768C11.0827 5.28219 11.0917 5.28937 11.1025 5.29477C11.1348 5.31453 11.1671 5.3325 11.1995 5.34867C11.2103 5.35406 11.2193 5.35945 11.23 5.36305C11.2642 5.37922 11.3001 5.39539 11.3379 5.40977C11.345 5.41336 11.354 5.41695 11.363 5.41875C11.4043 5.43492 11.4457 5.4493 11.4888 5.46187C11.4924 5.46367 11.496 5.46367 11.4996 5.46547C11.6936 5.52297 11.9021 5.54812 12.1141 5.54812C12.7538 5.54812 13.4168 5.31094 13.7978 4.97133C13.8293 4.94268 13.8702 4.92668 13.9128 4.92641C13.9218 4.92641 13.9307 4.93 13.9379 4.9318C13.9451 4.93359 13.9541 4.93359 13.9613 4.93719C13.9721 4.94078 13.9829 4.94438 13.9936 4.94977C14.0116 4.95875 14.026 4.96953 14.0404 4.98211C14.0439 4.9857 14.0457 4.9893 14.0493 4.99289C14.0619 5.00727 14.0727 5.02523 14.0817 5.0432C14.0835 5.0468 14.0835 5.04859 14.0853 5.05219C14.0943 5.07555 14.0996 5.1025 14.0961 5.13125C14.0421 5.67391 13.7007 6.35313 12.8886 6.86344C12.1159 7.35039 10.4897 7.35578 9.33254 6.56336L9.3002 6.5418C9.26606 6.51664 9.23012 6.49148 9.19598 6.46633C9.1816 6.45555 9.16543 6.44297 9.15105 6.43039C9.10074 6.39086 9.05223 6.34953 9.00551 6.30641L8.93543 6.24172C8.91027 6.22195 8.88871 6.19859 8.86715 6.17703Z" fill="#543930"/>
<path d="M8.86715 6.17703C8.84199 6.15008 8.81684 6.12492 8.79168 6.09797C8.77371 6.0782 8.75574 6.05664 8.73777 6.03687C8.69644 5.98836 8.65691 5.93984 8.61918 5.88953L8.60301 5.86797C8.56707 5.81945 8.53473 5.76914 8.50238 5.71703C8.4934 5.70266 8.48441 5.68648 8.47543 5.67211C8.44488 5.62 8.41434 5.56789 8.38559 5.51219C8.3802 5.5032 8.3766 5.49602 8.37301 5.48703C8.30473 5.35227 8.24543 5.20672 8.19691 5.05398L8.19152 5.03781C8.09269 4.71977 8.0352 4.36578 8.0352 3.96687C8.0352 3.16906 8.3227 2.53836 8.76113 2.06219C8.76652 2.0568 8.77012 2.0532 8.77371 2.04781C8.80785 2.01187 8.84379 1.97594 8.87973 1.94L8.90129 1.91844C8.94311 1.87866 8.98626 1.84031 9.03066 1.80344C9.0666 1.77289 9.10254 1.74414 9.13848 1.71539C9.14746 1.7082 9.15645 1.70281 9.16363 1.69562L9.28223 1.60938C9.28941 1.60578 9.2948 1.60039 9.30199 1.5968C9.44574 1.49977 9.59488 1.41352 9.74941 1.33984C9.75481 1.33625 9.76199 1.33445 9.76738 1.33086C9.8123 1.3093 9.85723 1.28953 9.90215 1.26977L9.94348 1.2518C9.98301 1.23562 10.0225 1.21945 10.0621 1.20508C10.0764 1.19969 10.0926 1.1943 10.107 1.18891C10.1447 1.17453 10.1825 1.16195 10.2184 1.14938L10.2669 1.1332C10.3046 1.12062 10.3406 1.10984 10.3783 1.09906C10.3945 1.09367 10.4107 1.09008 10.4286 1.08469C10.4664 1.07391 10.5041 1.06492 10.5418 1.05594L10.5886 1.04516C10.6299 1.03617 10.6712 1.02719 10.7107 1.0182C10.7233 1.01641 10.7359 1.01281 10.7485 1.01102C10.8545 0.987656 10.9605 0.971484 11.0665 0.958906C11.0809 0.957109 11.0953 0.957109 11.1096 0.955313C11.1474 0.951719 11.1833 0.948125 11.2211 0.946328C11.2426 0.944531 11.2624 0.944531 11.2839 0.942734C11.3145 0.940937 11.3432 0.939141 11.372 0.939141C11.3954 0.939141 11.4187 0.937344 11.4439 0.937344C11.46 0.937344 11.4762 0.935547 11.4906 0.935547H11.5086C11.5858 0.935547 11.6631 0.939141 11.7386 0.944531C11.7529 0.946328 11.7673 0.946328 11.7817 0.948125C11.8589 0.955313 11.9344 0.9625 12.0063 0.975078C12.8886 1.11883 13.6019 1.58242 14.0475 2.03523C14.3153 2.30656 14.486 2.5743 14.5381 2.76656H14.5363C13.9649 2.62102 13.2264 2.49344 12.4034 2.45031C11.2893 2.37305 10.3586 3.00734 10.4035 3.98125C10.4089 4.09805 10.4232 4.20766 10.443 4.31008L10.4484 4.34063C10.4574 4.38016 10.4682 4.41969 10.4789 4.45742C10.4843 4.47539 10.4897 4.49336 10.4933 4.50953C10.5041 4.54187 10.5149 4.57422 10.5275 4.60656C10.5346 4.62633 10.5436 4.64609 10.5526 4.66586C10.5652 4.69461 10.5778 4.72156 10.5904 4.74672C10.6011 4.76828 10.6119 4.78805 10.6245 4.80781C10.6371 4.83117 10.6514 4.85453 10.6658 4.87609C10.6802 4.89766 10.6964 4.91922 10.7107 4.94078C10.7233 4.95875 10.7359 4.97672 10.7503 4.99469C10.7736 5.02344 10.7988 5.05039 10.8239 5.07555C10.8311 5.08273 10.8383 5.09172 10.8455 5.09891C10.8796 5.13305 10.9156 5.16359 10.9533 5.19414C10.9605 5.19953 10.9695 5.20492 10.9767 5.21031C11.0073 5.23409 11.0391 5.25628 11.0719 5.2768C11.0827 5.28219 11.0917 5.28937 11.1025 5.29477C11.1348 5.31453 11.1671 5.3325 11.1995 5.34867C11.2103 5.35406 11.2193 5.35945 11.23 5.36305C11.2642 5.37922 11.3001 5.39539 11.3379 5.40977C11.345 5.41336 11.354 5.41695 11.363 5.41875C11.4043 5.43492 11.4457 5.4493 11.4888 5.46187C11.4924 5.46367 11.496 5.46367 11.4996 5.46547C11.6936 5.52297 11.9021 5.54812 12.1141 5.54812C12.7538 5.54812 13.4168 5.31094 13.7978 4.97133C13.8293 4.94268 13.8702 4.92668 13.9128 4.92641C13.9218 4.92641 13.9307 4.93 13.9379 4.9318C13.9451 4.93359 13.9541 4.93359 13.9613 4.93719C13.9721 4.94078 13.9829 4.94438 13.9936 4.94977C14.0116 4.95875 14.026 4.96953 14.0404 4.98211C14.0439 4.9857 14.0457 4.9893 14.0493 4.99289C14.0619 5.00727 14.0727 5.02523 14.0817 5.0432C14.0835 5.0468 14.0835 5.04859 14.0853 5.05219C14.0943 5.07555 14.0996 5.1025 14.0961 5.13125C14.0421 5.67391 13.7007 6.35313 12.8886 6.86344C12.1159 7.35039 10.4897 7.35578 9.33254 6.56336L9.3002 6.5418C9.26606 6.51664 9.23012 6.49148 9.19598 6.46633C9.1816 6.45555 9.16543 6.44297 9.15105 6.43039C9.10074 6.39086 9.05223 6.34953 9.00551 6.30641L8.93543 6.24172C8.91027 6.22195 8.88871 6.19859 8.86715 6.17703Z" fill="url(#paint0_radial_1954_13543)"/>
<path d="M10.5636 14.8616C10.5878 14.8516 10.6132 14.845 10.6391 14.8418H12.3102C12.3354 14.8454 12.3605 14.8508 12.3857 14.8616C12.5366 14.9227 12.6211 15.0808 12.5492 15.2461C12.4773 15.4132 12.1449 15.8822 11.4747 15.8822C10.8044 15.8822 10.472 15.4132 10.4001 15.2461C10.3301 15.079 10.4127 14.9227 10.5636 14.8616Z" fill="#E59600"/>
<path d="M15.405 15.0266C14.7619 15.0266 14.2406 14.4868 14.2406 13.8209C14.2406 13.155 14.7619 12.6152 15.405 12.6152C16.048 12.6152 16.5693 13.155 16.5693 13.8209C16.5693 14.4868 16.048 15.0266 15.405 15.0266Z" fill="#404040"/>
<path d="M7.54949 15.0266C6.90643 15.0266 6.38512 14.4868 6.38512 13.8209C6.38512 13.155 6.90643 12.6152 7.54949 12.6152C8.19256 12.6152 8.71387 13.155 8.71387 13.8209C8.71387 14.4868 8.19256 15.0266 7.54949 15.0266Z" fill="#404040"/>
<path d="M9.80049 17.3656C10.4474 17.7501 12.5677 17.7501 13.2128 17.3656C13.5847 17.1446 13.9638 17.4824 13.8093 17.8202C13.6584 18.1526 12.5012 18.9217 11.5003 18.9217C10.5013 18.9217 9.35845 18.1526 9.20752 17.8202C9.05478 17.4824 9.43033 17.1446 9.80049 17.3656Z" fill="#795548"/>
<defs>
<radialGradient id="paint0_radial_1954_13543" cx="0" cy="0" r="1" gradientUnits="userSpaceOnUse" gradientTransform="translate(11.6024 7.2043) rotate(180) scale(6.3852)">
<stop offset="0.699" stop-color="#6D4C41" stop-opacity="0"/>
<stop offset="1" stop-color="#6D4C41"/>
</radialGradient>
</defs>
</svg>
