<svg width="13" height="15" viewBox="0 0 13 15" fill="none" xmlns="http://www.w3.org/2000/svg">
<path d="M12.35 2.49999H10.335C10.024 1.04599 8.69381 0.001875 7.14999 0H5.84998C4.30615 0.001875 2.97595 1.04599 2.66498 2.49999H0.649991C0.291007 2.49999 0 2.7798 0 3.12498C0 3.47016 0.291007 3.75 0.649991 3.75H1.29998V11.875C1.30215 13.6 2.75596 14.9979 4.55 15H8.45C10.244 14.9979 11.6979 13.6 11.7 11.875V3.75H12.35C12.709 3.75 13 3.47019 13 3.12501C13 2.77983 12.709 2.49999 12.35 2.49999ZM5.85001 10.625C5.85001 10.9702 5.559 11.25 5.20002 11.25C4.841 11.25 4.55 10.9702 4.55 10.625V6.87501C4.55 6.52983 4.841 6.25002 5.19999 6.25002C5.55897 6.25002 5.84998 6.52983 5.84998 6.87501V10.625H5.85001ZM8.45 10.625C8.45 10.9702 8.159 11.25 7.80001 11.25C7.44103 11.25 7.15002 10.9702 7.15002 10.625V6.87501C7.15002 6.52983 7.44103 6.25002 7.80001 6.25002C8.159 6.25002 8.45 6.52983 8.45 6.87501V10.625ZM4.01116 2.49999C4.28763 1.75143 5.02388 1.25095 5.85001 1.24998H7.15002C7.97615 1.25095 8.7124 1.75143 8.98887 2.49999H4.01116Z" fill="#559BEF"/>
</svg>
