<svg width="15" height="15" viewBox="0 0 15 15" fill="none" xmlns="http://www.w3.org/2000/svg">
<g clip-path="url(#clip0_1369_12547)">
<path d="M7.5 0C3.35786 0 0 3.35786 0 7.5C0 11.6421 3.35786 15 7.5 15C11.6421 15 15 11.6421 15 7.5C14.9955 3.35971 11.6403 0.00448242 7.5 0ZM7.5 1.875C8.66728 1.87512 9.80525 2.24054 10.7544 2.91999L2.91999 10.7537C1.11814 8.22899 1.7042 4.7216 4.22895 2.91976C5.1835 2.23854 6.3273 1.87321 7.5 1.875ZM7.5 13.125C6.3329 13.1249 5.19513 12.7595 4.24626 12.08L12.08 4.24564C13.8822 6.77016 13.2966 10.2776 10.7721 12.0798C9.81732 12.7614 8.67311 13.1269 7.5 13.125Z" fill="white"/>
</g>
<defs>
<clipPath id="clip0_1369_12547">
<rect width="15" height="15" fill="white"/>
</clipPath>
</defs>
</svg>
