<svg width="15" height="15" viewBox="0 0 15 15" fill="none" xmlns="http://www.w3.org/2000/svg">
<g clip-path="url(#clip0_2085_19787)">
<path d="M11.0756 1.875L10.1924 0.73C10.0165 0.503629 9.79139 0.32026 9.53411 0.193784C9.27682 0.0673072 8.99413 0.0010394 8.70744 0L6.29244 0C6.00575 0.0010394 5.72306 0.0673072 5.46577 0.193784C5.20849 0.32026 4.98336 0.503629 4.80744 0.73L3.92432 1.875H11.0756Z" fill="#7A7FAA"/>
<path d="M7.5 11.25C8.88071 11.25 10 10.1307 10 8.75C10 7.36929 8.88071 6.25 7.5 6.25C6.11929 6.25 5 7.36929 5 8.75C5 10.1307 6.11929 11.25 7.5 11.25Z" fill="#7A7FAA"/>
<path d="M11.875 3.125H3.125C2.2965 3.12599 1.50222 3.45555 0.916387 4.04139C0.330551 4.62722 0.000992411 5.4215 0 6.25L0 11.875C0.000992411 12.7035 0.330551 13.4978 0.916387 14.0836C1.50222 14.6695 2.2965 14.999 3.125 15H11.875C12.7035 14.999 13.4978 14.6695 14.0836 14.0836C14.6694 13.4978 14.999 12.7035 15 11.875V6.25C14.999 5.4215 14.6694 4.62722 14.0836 4.04139C13.4978 3.45555 12.7035 3.12599 11.875 3.125ZM7.5 12.5C6.75832 12.5 6.0333 12.2801 5.41661 11.868C4.79993 11.456 4.31928 10.8703 4.03545 10.1851C3.75162 9.49984 3.67736 8.74584 3.82206 8.01841C3.96675 7.29098 4.3239 6.6228 4.84835 6.09835C5.3728 5.5739 6.04098 5.21675 6.76841 5.07206C7.49584 4.92736 8.24984 5.00162 8.93506 5.28545C9.62029 5.56928 10.206 6.04993 10.618 6.66661C11.0301 7.2833 11.25 8.00832 11.25 8.75C11.249 9.74426 10.8536 10.6975 10.1506 11.4006C9.44751 12.1036 8.49426 12.499 7.5 12.5Z" fill="#7A7FAA"/>
</g>
<defs>
<clipPath id="clip0_2085_19787">
<rect width="15" height="15" fill="white"/>
</clipPath>
</defs>
</svg>
