<svg width="18" height="20" viewBox="0 0 18 20" fill="none" xmlns="http://www.w3.org/2000/svg">
<path fill-rule="evenodd" clip-rule="evenodd" d="M8.65955 1.24732C8.14008 1.68653 8.19829 1.9213 9.04997 2.82131C10.003 3.82817 10.0637 3.83383 10.3169 2.93946C10.8506 1.05005 9.96393 0.14439 8.65955 1.24732ZM7.06042 3.49581C6.79784 3.89496 5.66851 4.38041 4.55059 4.57459C2.28299 4.96809 1.90478 5.46741 0.542593 9.86114C-0.416558 12.9536 -0.0998266 14.5852 1.459 14.5852C1.96096 14.5852 2.78414 14.9494 3.28773 15.3948C4.14266 16.1504 4.25258 16.1294 4.92676 15.0783L5.64979 13.9518L7.80788 15.3316C10.1227 16.8121 11.1384 16.9929 13.8502 16.4088C15.0064 16.1597 15.5804 16.2213 15.5804 16.5948C15.5804 16.902 16.13 17.1537 16.8017 17.1537C18.2226 17.1537 18.2425 17.0032 17.5732 11.3231L17.123 7.50579L15.6394 7.75289C14.3725 7.96351 13.6926 7.61778 10.9878 5.3847C9.24579 3.94684 7.75658 2.76994 7.67923 2.76994C7.60147 2.76994 7.32301 3.09666 7.06042 3.49581ZM8.20359 5.9806C7.13981 8.51625 6.53728 9.37363 6.00112 9.11421C5.5647 8.90307 5.67462 8.39348 6.49291 6.83335C7.65562 4.6162 9.07195 3.91037 8.20359 5.9806ZM5.40267 6.04687C5.40267 6.36845 2.616 12.2211 2.112 12.9583C1.82906 13.3718 1.49604 13.4571 1.27132 13.1735C0.689967 12.4399 2.54639 6.85596 3.54055 6.34842C4.448 5.88505 5.40267 5.73043 5.40267 6.04687ZM12.3638 8.2368C14.059 9.55702 14.7678 10.4267 14.7719 11.1906C14.7747 11.786 14.883 12.7703 15.0121 13.3769C15.2205 14.3581 15.0092 14.5446 13.1027 15.0604C11.0468 15.6167 10.8356 15.5669 7.97723 13.8542C6.02392 12.6834 4.99556 11.7706 4.99556 11.207C4.99556 10.3348 5.45234 10.3404 8.32694 11.2512C9.10208 11.4968 9.42899 11.2841 9.86785 10.2495C10.5587 8.62054 10.1402 7.96556 9.13872 9.10856C7.98415 10.4272 7.79485 10.1298 8.53782 8.16385C8.91155 7.17497 9.38502 6.36588 9.58939 6.36588C9.79416 6.36588 11.0428 7.20785 12.3638 8.2368ZM16.5526 12.3459C16.917 16.2578 16.6071 16.3975 16.1154 12.5432C15.898 10.8408 15.8467 9.44812 16.0014 9.44812C16.1561 9.44812 16.404 10.7524 16.5526 12.3459ZM4.22368 13.7098C3.70095 14.3694 3.1713 13.8598 3.55806 13.0697C3.70787 12.7641 4.01687 12.6593 4.24485 12.837C4.52291 13.0538 4.51599 13.341 4.22368 13.7098ZM1.14715 16.9492C0.995706 17.9669 0.964765 18.9167 1.07835 19.0601C1.19193 19.2034 1.87181 18.7935 2.58913 18.1488L3.89351 16.9765L2.97467 16.0379C1.69105 14.7264 1.46063 14.841 1.14715 16.9492Z" fill="#559BEF"/>
</svg>
