<svg width="17" height="17" viewBox="0 0 17 17" fill="none" xmlns="http://www.w3.org/2000/svg">
<path d="M12.3943 0C11.597 0.0141142 10.8171 0.26742 10.1333 0.734338C9.44954 1.20126 8.88614 1.86525 8.5 2.65927C8.11386 1.86525 7.55046 1.20126 6.8667 0.734338C6.18294 0.26742 5.40303 0.0141142 4.60574 0C3.33475 0.062848 2.13728 0.695644 1.27493 1.76014C0.41258 2.82464 -0.0445429 4.2343 0.00342773 5.68117C0.00342773 9.34531 3.39214 13.3471 6.23425 16.0604C6.86881 16.6673 7.67113 17 8.5 17C9.32887 17 10.1312 16.6673 10.7658 16.0604C13.6079 13.3471 16.9966 9.34531 16.9966 5.68117C17.0445 4.2343 16.5874 2.82464 15.7251 1.76014C14.8627 0.695644 13.6652 0.062848 12.3943 0Z" fill="#7A7FAA"/>
</svg>
