<svg width="15" height="15" viewBox="0 0 15 15" fill="none" xmlns="http://www.w3.org/2000/svg">
<g clip-path="url(#clip0_2168_27180)">
<path d="M7.5 0C6.01664 0 4.5666 0.439867 3.33323 1.26398C2.09986 2.08809 1.13856 3.25943 0.570907 4.62987C0.00324965 6.00032 -0.145275 7.50832 0.144114 8.96318C0.433503 10.418 1.14781 11.7544 2.1967 12.8033C3.2456 13.8522 4.58197 14.5665 6.03683 14.8559C7.49168 15.1453 8.99968 14.9968 10.3701 14.4291C11.7406 13.8614 12.9119 12.9001 13.736 11.6668C14.5601 10.4334 15 8.98336 15 7.5C14.9979 5.51154 14.207 3.60513 12.8009 2.19907C11.3949 0.793018 9.48847 0.00215068 7.5 0V0ZM7.5 13.125C6.38748 13.125 5.29995 12.7951 4.37492 12.177C3.44989 11.5589 2.72892 10.6804 2.30318 9.6526C1.87744 8.62476 1.76604 7.49376 1.98309 6.40262C2.20013 5.31147 2.73586 4.3092 3.52253 3.52252C4.3092 2.73585 5.31148 2.20012 6.40262 1.98308C7.49376 1.76604 8.62476 1.87743 9.6526 2.30318C10.6804 2.72892 11.5589 3.44989 12.177 4.37492C12.7951 5.29994 13.125 6.38748 13.125 7.5C13.1232 8.99129 12.53 10.421 11.4755 11.4755C10.421 12.53 8.99129 13.1232 7.5 13.125Z" fill="black"/>
<path d="M7.21616 5.96514H7.02866C6.78302 5.95911 6.54399 6.04505 6.35842 6.2061C6.17285 6.36716 6.05413 6.59172 6.02553 6.83577C6.00918 7.07991 6.08893 7.32077 6.24775 7.50691C6.40657 7.69305 6.63186 7.80973 6.87553 7.83202V10.7383C6.87553 10.9869 6.97431 11.2254 7.15012 11.4012C7.32594 11.577 7.56439 11.6758 7.81303 11.6758C8.06167 11.6758 8.30013 11.577 8.47595 11.4012C8.65176 11.2254 8.75053 10.9869 8.75053 10.7383V7.49952C8.75053 7.09257 8.58888 6.7023 8.30113 6.41455C8.01338 6.1268 7.6231 5.96514 7.21616 5.96514Z" fill="black"/>
<path d="M7.39281 5.29148C7.60493 5.29148 7.81229 5.22858 7.98866 5.11074C8.16503 4.99289 8.3025 4.82539 8.38367 4.62941C8.46485 4.43344 8.48609 4.2178 8.4447 4.00975C8.40332 3.80171 8.30118 3.6106 8.15118 3.46061C8.00119 3.31062 7.81009 3.20848 7.60205 3.16709C7.394 3.12571 7.17836 3.14695 6.98238 3.22812C6.78641 3.3093 6.61891 3.44676 6.50106 3.62314C6.38321 3.79951 6.32031 4.00686 6.32031 4.21898C6.32023 4.35985 6.34792 4.49935 6.40178 4.62951C6.45565 4.75967 6.53465 4.87793 6.63426 4.97754C6.73386 5.07715 6.85213 5.15614 6.98229 5.21001C7.11245 5.26388 7.25195 5.29157 7.39281 5.29148Z" fill="black"/>
</g>
<defs>
<clipPath id="clip0_2168_27180">
<rect width="15" height="15" fill="white"/>
</clipPath>
</defs>
</svg>
