<svg width="8" height="10" viewBox="0 0 8 10" fill="none" xmlns="http://www.w3.org/2000/svg">
<path d="M0 4.18269C0 1.8892 1.7581 0 3.99995 0C6.23383 0 8 1.90714 8 4.18269C8 4.40685 7.97727 4.63492 7.93308 4.86642C7.73324 5.91323 7.11029 6.99549 6.1995 8.08041C5.8171 8.53592 5.40855 8.96145 4.99992 9.34632C4.85672 9.48119 4.7235 9.60155 4.60354 9.70598C4.53053 9.76955 4.47741 9.81428 4.45681 9.8309C4.199 10.0536 3.80656 10.0558 3.55483 9.84084C3.52487 9.81635 3.47171 9.77158 3.39865 9.70798C3.27862 9.60347 3.14532 9.48304 3.00203 9.34808C2.59313 8.96298 2.18432 8.53721 1.80167 8.08148C0.89182 6.99786 0.269001 5.91699 0.0679462 4.87158C0.0230815 4.63831 0 4.40851 0 4.18269ZM4 5.83333C4.88366 5.83333 5.6 5.08714 5.6 4.16667C5.6 3.24619 4.88366 2.5 4 2.5C3.11634 2.5 2.4 3.24619 2.4 4.16667C2.4 5.08714 3.11634 5.83333 4 5.83333Z" fill="#7A7FAA"/>
</svg>
