<svg width="17" height="17" viewBox="0 0 17 17" fill="none" xmlns="http://www.w3.org/2000/svg">
<path d="M14.1667 0H2.83333C2.08189 0 1.36122 0.298515 0.829864 0.829876C0.298511 1.36124 0 2.08192 0 2.83337L0 11.3335C0 12.085 0.298511 12.8056 0.829864 13.337C1.36122 13.8684 2.08189 14.1669 2.83333 14.1669H4.8875L8.04029 16.8324C8.16819 16.9406 8.33032 17 8.49787 17C8.66543 17 8.82756 16.9406 8.95546 16.8324L12.1125 14.1669H14.1667C14.9181 14.1669 15.6388 13.8684 16.1701 13.337C16.7015 12.8056 17 12.085 17 11.3335V2.83337C17 2.08192 16.7015 1.36124 16.1701 0.829876C15.6388 0.298515 14.9181 0 14.1667 0ZM4.95833 3.54172H8.5C8.68786 3.54172 8.86803 3.61635 9.00087 3.74919C9.13371 3.88203 9.20833 4.0622 9.20833 4.25006C9.20833 4.43792 9.13371 4.61809 9.00087 4.75093C8.86803 4.88377 8.68786 4.9584 8.5 4.9584H4.95833C4.77047 4.9584 4.5903 4.88377 4.45747 4.75093C4.32463 4.61809 4.25 4.43792 4.25 4.25006C4.25 4.0622 4.32463 3.88203 4.45747 3.74919C4.5903 3.61635 4.77047 3.54172 4.95833 3.54172ZM12.0417 10.6251H4.95833C4.77047 10.6251 4.5903 10.5505 4.45747 10.4177C4.32463 10.2848 4.25 10.1047 4.25 9.91681C4.25 9.72894 4.32463 9.54877 4.45747 9.41593C4.5903 9.28309 4.77047 9.20846 4.95833 9.20846H12.0417C12.2295 9.20846 12.4097 9.28309 12.5425 9.41593C12.6754 9.54877 12.75 9.72894 12.75 9.91681C12.75 10.1047 12.6754 10.2848 12.5425 10.4177C12.4097 10.5505 12.2295 10.6251 12.0417 10.6251ZM12.0417 7.79178H4.95833C4.77047 7.79178 4.5903 7.71715 4.45747 7.58431C4.32463 7.45147 4.25 7.2713 4.25 7.08343C4.25 6.89557 4.32463 6.7154 4.45747 6.58256C4.5903 6.44972 4.77047 6.37509 4.95833 6.37509H12.0417C12.2295 6.37509 12.4097 6.44972 12.5425 6.58256C12.6754 6.7154 12.75 6.89557 12.75 7.08343C12.75 7.2713 12.6754 7.45147 12.5425 7.58431C12.4097 7.71715 12.2295 7.79178 12.0417 7.79178Z" fill="#559BEF"/>
</svg>
