<svg width="17" height="17" viewBox="0 0 17 17" fill="none" xmlns="http://www.w3.org/2000/svg">
<path d="M10.6091 4.97299V2.13626C10.6091 1.94818 10.6838 1.76779 10.8168 1.63479C10.9498 1.5018 11.1301 1.42708 11.3182 1.42708C11.5063 1.42708 11.6867 1.5018 11.8197 1.63479C11.9526 1.76779 12.0274 1.94818 12.0274 2.13626V3.98794C12.4741 3.53832 15.361 0.636341 15.7808 0.216505C15.8462 0.148771 15.9245 0.0947438 16.011 0.0575763C16.0975 0.0204087 16.1905 0.000845043 16.2847 2.67764e-05C16.3789 -0.00079149 16.4722 0.017152 16.5594 0.0528104C16.6465 0.0884687 16.7257 0.141128 16.7923 0.207715C16.8589 0.274302 16.9115 0.353483 16.9472 0.440639C16.9828 0.527795 17.0008 0.62118 17 0.715345C16.9992 0.80951 16.9796 0.902569 16.9424 0.989092C16.9053 1.07561 16.8512 1.15387 16.7835 1.21929C16.3637 1.63913 13.4917 4.52763 13.0478 4.97299H14.8639C15.052 4.97299 15.2323 5.04771 15.3653 5.18071C15.4983 5.31371 15.573 5.49409 15.573 5.68218C15.573 5.87026 15.4983 6.05065 15.3653 6.18364C15.2323 6.31664 15.052 6.39136 14.8639 6.39136H12.0274C11.6512 6.39136 11.2905 6.24192 11.0245 5.97593C10.7585 5.70993 10.6091 5.34917 10.6091 4.97299ZM16.3495 11.8797C16.7605 12.2918 16.9912 12.8501 16.9912 13.4321C16.9912 14.0141 16.7605 14.5724 16.3495 14.9845L15.7028 15.7292C9.89428 21.2877 -4.23732 7.1594 1.23648 1.33276L2.05198 0.623576C2.46444 0.223984 3.01763 0.00285592 3.59186 0.00803198C4.1661 0.013208 4.71521 0.244272 5.1204 0.651234C5.14238 0.67251 6.4557 2.38022 6.4557 2.38022C6.84425 2.79051 7.06044 3.33434 7.05965 3.89943C7.05886 4.46452 6.84114 5.00774 6.45144 5.41694L5.63027 6.44951C6.08482 7.55373 6.75301 8.55727 7.59647 9.40249C8.43993 10.2477 9.44205 10.918 10.5453 11.3748L11.5841 10.5486C11.9925 10.1578 12.5357 9.93938 13.1008 9.93859C13.666 9.93779 14.2098 10.1547 14.6192 10.5443C14.6192 10.5443 16.3275 11.8584 16.3495 11.8797ZM15.3745 12.9109C15.3745 12.9109 13.6775 11.6046 13.6555 11.5833C13.5094 11.4384 13.312 11.3571 13.1063 11.3571C12.9006 11.3571 12.7032 11.4384 12.5571 11.5833C12.5379 11.6017 11.1076 12.7421 11.1076 12.7421C11.0112 12.8188 10.8965 12.8691 10.7748 12.888C10.653 12.9069 10.5285 12.8938 10.4134 12.8499C8.98335 12.3178 7.68443 11.4845 6.60468 10.4063C5.52493 9.32823 4.68958 8.03055 4.15527 6.60128C4.1079 6.48458 4.09246 6.35738 4.11053 6.23274C4.1286 6.1081 4.17953 5.99052 4.2581 5.89209C4.2581 5.89209 5.39838 4.4638 5.41753 4.44536C5.56238 4.29926 5.64366 4.10184 5.64366 3.8961C5.64366 3.69035 5.56238 3.49294 5.41753 3.34684C5.39625 3.32556 4.09003 1.62707 4.09003 1.62707C3.94175 1.4941 3.74823 1.42289 3.54914 1.42804C3.35005 1.43318 3.16046 1.51428 3.01924 1.65473L2.20374 2.36391C-1.79719 7.1743 10.451 18.7439 14.6653 14.7626L15.3121 14.0172C15.4645 13.8773 15.5564 13.6833 15.568 13.4767C15.5797 13.2701 15.5102 13.0671 15.3745 12.9109Z" fill="white"/>
</svg>
