<svg width="13" height="13" viewBox="0 0 13 13" fill="none" xmlns="http://www.w3.org/2000/svg">
<path d="M0.637118 10.3463C0.229299 10.7539 0.000123156 11.3069 0 11.8836L0 12.9996H1.11604C1.6927 12.9995 2.24569 12.7703 2.65339 12.3625L9.90686 5.10905L7.89058 3.09277L0.637118 10.3463Z" fill="white"/>
<path d="M12.5819 0.418005C12.4495 0.28549 12.2923 0.180366 12.1193 0.108641C11.9463 0.0369174 11.7608 0 11.5735 0C11.3862 0 11.2007 0.0369174 11.0277 0.108641C10.8547 0.180366 10.6975 0.28549 10.5651 0.418005L8.65918 2.32447L10.6755 4.34074L12.5819 2.43482C12.7144 2.30245 12.8196 2.14525 12.8913 1.97222C12.963 1.79919 12.9999 1.61372 12.9999 1.42641C12.9999 1.23911 12.963 1.05364 12.8913 0.880608C12.8196 0.707578 12.7144 0.550381 12.5819 0.418005Z" fill="white"/>
</svg>
