<svg width="29" height="22" viewBox="0 0 29 22" fill="none" xmlns="http://www.w3.org/2000/svg">
<g clip-path="url(#clip0_515_11811)">
<path d="M6.32669 21.9498C6.33284 21.9539 6.34103 21.9519 6.34718 21.956C6.39554 21.9831 6.44962 21.9981 6.50493 22C6.5354 21.9999 6.56571 21.9958 6.59508 21.9876L14.0171 19.9485L21.4392 21.9876C21.4685 21.9958 21.4989 21.9999 21.5293 22C21.5845 21.9983 21.6385 21.983 21.6864 21.9553C21.6932 21.9519 21.7007 21.9532 21.7069 21.9491L27.8532 18.1679C27.9167 18.1286 27.9657 18.0696 27.9929 17.9997C28.02 17.9298 28.0237 17.853 28.0035 17.7808L24.5998 5.74954C24.5858 5.69943 24.5608 5.65317 24.5265 5.61425C24.4922 5.57534 24.4495 5.54479 24.4017 5.52492C24.354 5.50505 24.3023 5.49638 24.2507 5.49956C24.1992 5.50274 24.149 5.5177 24.104 5.54329L20.7153 7.45729C20.6411 7.50446 20.5877 7.57853 20.5662 7.66419C20.5447 7.74985 20.5567 7.84055 20.5998 7.91754C20.6429 7.99452 20.7137 8.05191 20.7976 8.07783C20.8815 8.10374 20.972 8.09621 21.0506 8.05679L24.0616 6.35523L27.2762 17.7169L21.8025 21.0849L20.5022 10.6136C20.491 10.5231 20.4445 10.4407 20.3729 10.3847C20.3014 10.3287 20.2107 10.3036 20.1208 10.3149C20.0309 10.3262 19.9491 10.373 19.8934 10.445C19.8378 10.517 19.8128 10.6083 19.8241 10.6989L21.1264 21.1894L14.3586 19.3297V17.4529C14.3586 17.3617 14.3226 17.2742 14.2586 17.2098C14.1945 17.1453 14.1077 17.1091 14.0171 17.1091C13.9266 17.1091 13.8397 17.1453 13.7757 17.2098C13.7116 17.2742 13.6757 17.3617 13.6757 17.4529V19.3297L6.90718 21.1894L8.20952 10.6989C8.21508 10.654 8.21181 10.6085 8.19991 10.565C8.18801 10.5214 8.1677 10.4807 8.14015 10.445C8.11259 10.4093 8.07833 10.3795 8.03932 10.3572C8.00031 10.3349 7.95731 10.3205 7.91279 10.3149C7.86826 10.3093 7.82307 10.3126 7.77981 10.3246C7.73654 10.3365 7.69604 10.357 7.66062 10.3847C7.62521 10.4125 7.59556 10.4469 7.57339 10.4862C7.55121 10.5255 7.53693 10.5688 7.53137 10.6136L6.23176 21.0849L0.758104 17.7175L3.97264 6.3566L6.98367 8.05816C7.06221 8.09759 7.1528 8.10512 7.2367 8.0792C7.3206 8.05328 7.3914 7.9959 7.43446 7.91891C7.47753 7.84193 7.48955 7.75122 7.46806 7.66556C7.44656 7.5799 7.39319 7.50583 7.31898 7.45866L3.92962 5.54398C3.88472 5.5181 3.83454 5.50292 3.78291 5.4996C3.73129 5.49627 3.67959 5.5049 3.63179 5.52481C3.58399 5.54472 3.54135 5.57539 3.50715 5.61447C3.47295 5.65354 3.4481 5.69998 3.43449 5.75023L0.0307871 17.7815C0.0102007 17.8537 0.0137556 17.9306 0.0409043 18.0006C0.068053 18.0705 0.11729 18.1295 0.181031 18.1685L6.32669 21.9498Z" fill="white"/>
<path d="M13.7856 16.0655C13.8483 16.1238 13.9304 16.1563 14.0157 16.1567C14.101 16.157 14.1834 16.1253 14.2466 16.0676C14.474 15.8593 19.822 10.9189 19.822 5.84375C19.822 2.56644 17.2726 0 14.0171 0C10.7616 0 8.21222 2.56644 8.21222 5.84375C8.21222 10.8309 13.5582 15.8538 13.7856 16.0655ZM14.0171 0.6875C16.9366 0.6875 19.139 2.904 19.139 5.84375C19.139 10.0354 15.0463 14.3254 14.0191 15.3361C12.9941 14.3137 8.89515 9.96737 8.89515 5.84375C8.89515 2.904 11.0976 0.6875 14.0171 0.6875Z" fill="white"/>
<path d="M17.0903 5.84375C17.0903 4.13806 15.7114 2.75 14.0171 2.75C12.3227 2.75 10.9439 4.13806 10.9439 5.84375C10.9439 7.54944 12.3227 8.9375 14.0171 8.9375C15.7114 8.9375 17.0903 7.54944 17.0903 5.84375ZM14.0171 8.25C12.699 8.25 11.6268 7.17062 11.6268 5.84375C11.6268 4.51688 12.699 3.4375 14.0171 3.4375C15.3351 3.4375 16.4073 4.51688 16.4073 5.84375C16.4073 7.17062 15.3351 8.25 14.0171 8.25Z" fill="white"/>
</g>
<defs>
<clipPath id="clip0_515_11811">
<rect width="28" height="22" fill="white" transform="translate(0.0170898)"/>
</clipPath>
</defs>
</svg>
