<svg width="20" height="27" viewBox="0 0 20 27" fill="none" xmlns="http://www.w3.org/2000/svg">
<path d="M18.4455 15.8281L3.38986 26.5268C3.13582 26.7091 2.84026 26.7797 2.54339 26.7289C2.24651 26.678 1.96274 26.5083 1.73066 26.2427L1.63762 26.1196C1.43776 25.8543 1.29508 25.5244 1.22601 25.168C1.15693 24.8116 1.16426 24.4431 1.24717 24.1051L3.56872 14.7609C3.59256 14.6678 3.63784 14.5884 3.69851 14.5333C3.75918 14.4782 3.83236 14.45 3.90827 14.4526L10.5112 14.7375C10.6099 14.7482 10.7078 14.7324 10.7992 14.6909C10.8905 14.6495 10.9733 14.5833 11.0425 14.4965C11.1117 14.4096 11.1659 14.3039 11.2019 14.1857C11.2378 14.0675 11.2546 13.9393 11.2514 13.8089C11.2482 13.6785 11.2249 13.5486 11.1831 13.427C11.1413 13.3055 11.0817 13.1948 11.0081 13.1018C10.9344 13.0088 10.8482 12.9354 10.7546 12.8859C10.661 12.8365 10.5621 12.8122 10.4637 12.8143L3.85457 12.5376C3.77862 12.5335 3.7039 12.499 3.64038 12.4385C3.57685 12.3781 3.52755 12.2946 3.49906 12.1992L0.724885 2.68609C0.61612 2.314 0.590346 1.91494 0.65075 1.53831C0.711154 1.16167 0.855085 0.823994 1.06473 0.567057C1.28445 0.307624 1.56512 0.151976 1.86679 0.122263C2.16846 0.0925484 2.47576 0.190281 2.74498 0.401555L18.3942 12.451C18.6687 12.6608 18.8913 12.9762 19.03 13.3519C19.1687 13.7276 19.2163 14.1442 19.1659 14.5415C19.1251 14.8174 19.0398 15.0747 18.9156 15.2965C18.7914 15.5183 18.6311 15.6995 18.4455 15.8281Z" fill="#559BEF"/>
</svg>
