<svg width="12" height="12" viewBox="0 0 12 12" fill="none" xmlns="http://www.w3.org/2000/svg">
<g clip-path="url(#clip0_2085_19345)">
<path d="M12 4.5C12 4.10218 11.842 3.72064 11.5607 3.43934C11.2794 3.15804 10.8978 3 10.5 3H9C9 2.20435 8.68393 1.44129 8.12132 0.87868C7.55871 0.31607 6.79565 0 6 0C5.20435 0 4.44129 0.31607 3.87868 0.87868C3.31607 1.44129 3 2.20435 3 3H1.5C1.10218 3 0.720644 3.15804 0.43934 3.43934C0.158035 3.72064 0 4.10218 0 4.5L0 9.5C0.000793929 10.1628 0.264441 10.7982 0.73311 11.2669C1.20178 11.7356 1.8372 11.9992 2.5 12H9.5C10.1628 11.9992 10.7982 11.7356 11.2669 11.2669C11.7356 10.7982 11.9992 10.1628 12 9.5V4.5ZM4 3C4 2.46957 4.21071 1.96086 4.58579 1.58579C4.96086 1.21071 5.46957 1 6 1C6.53043 1 7.03914 1.21071 7.41421 1.58579C7.78929 1.96086 8 2.46957 8 3H4Z" fill="white"/>
</g>
<defs>
<clipPath id="clip0_2085_19345">
<rect width="12" height="12" fill="white"/>
</clipPath>
</defs>
</svg>
