<svg width="19" height="19" viewBox="0 0 19 19" fill="none" xmlns="http://www.w3.org/2000/svg">
<g clip-path="url(#clip0_2018_17558)">
<path d="M15.3053 11.6116C14.7067 11.6121 14.1173 11.7582 13.5878 12.0373C13.0583 12.3165 12.6047 12.7203 12.2661 13.2139L7.11314 10.8872C7.47914 10.0034 7.48056 9.0107 7.1171 8.12586L12.2629 5.78728C12.7647 6.51304 13.5101 7.03492 14.3637 7.25823C15.2173 7.48155 16.1227 7.39152 16.9157 7.00447C17.7086 6.61742 18.3365 5.95899 18.6856 5.14861C19.0347 4.33824 19.0817 3.42959 18.8182 2.5875C18.5547 1.74541 17.9981 1.02564 17.2494 0.55876C16.5007 0.091882 15.6095 -0.0911842 14.7373 0.0427687C13.8652 0.176721 13.07 0.618821 12.4959 1.28887C11.9218 1.95893 11.6069 2.81255 11.6082 3.6949C11.6116 3.90375 11.6328 4.11192 11.6716 4.31715L6.20114 6.80299C5.67575 6.31074 5.018 5.98269 4.30872 5.85913C3.59944 5.73557 2.86951 5.82189 2.20862 6.10747C1.54772 6.39306 0.984634 6.86548 0.58854 7.46669C0.192446 8.0679 -0.0194053 8.77172 -0.0209872 9.49168C-0.022569 10.2116 0.186187 10.9164 0.579635 11.5193C0.973083 12.1223 1.53409 12.5972 2.19372 12.8857C2.85336 13.1741 3.5829 13.2637 4.29272 13.1432C5.00253 13.0228 5.66171 12.6976 6.18927 12.2077L11.6739 14.684C11.6358 14.8891 11.6149 15.097 11.6114 15.3055C11.6112 16.0363 11.8278 16.7507 12.2337 17.3585C12.6397 17.9662 13.2167 18.4399 13.8918 18.7196C14.567 18.9993 15.3099 19.0726 16.0267 18.93C16.7435 18.7875 17.4019 18.4356 17.9187 17.9188C18.4354 17.4021 18.7873 16.7437 18.9299 16.0269C19.0724 15.3101 18.9992 14.5672 18.7194 13.892C18.4397 13.2169 17.966 12.6398 17.3583 12.2339C16.7506 11.828 16.0361 11.6114 15.3053 11.6116ZM15.3053 1.58353C15.7229 1.58337 16.1312 1.70707 16.4785 1.93898C16.8259 2.17088 17.0966 2.50058 17.2565 2.88637C17.4165 3.27216 17.4584 3.69671 17.377 4.10633C17.2956 4.51595 17.0946 4.89223 16.7993 5.18759C16.5041 5.48295 16.1279 5.68412 15.7183 5.76565C15.3087 5.84718 14.8841 5.80542 14.4983 5.64564C14.1124 5.48585 13.7826 5.21523 13.5506 4.868C13.3186 4.52077 13.1947 4.11253 13.1947 3.6949C13.1951 3.1352 13.4176 2.59853 13.8133 2.20268C14.209 1.80683 14.7456 1.58416 15.3053 1.58353ZM3.69473 11.6116C3.2771 11.6117 2.86881 11.488 2.52149 11.2561C2.17418 11.0242 1.90343 10.6945 1.74351 10.3087C1.58358 9.92294 1.54165 9.49839 1.62303 9.08877C1.70441 8.67915 1.90544 8.30287 2.20069 8.00751C2.49594 7.71215 2.87215 7.51098 3.28173 7.42945C3.69132 7.34792 4.11589 7.38968 4.50174 7.54946C4.88759 7.70925 5.21739 7.97987 5.44942 8.3271C5.68146 8.67433 5.80531 9.08257 5.80531 9.5002C5.80468 10.0598 5.58214 10.5964 5.18649 10.9922C4.79084 11.388 4.25437 11.6107 3.69473 11.6116ZM15.3053 17.4169C14.8877 17.4169 14.4795 17.293 14.1323 17.061C13.7851 16.829 13.5145 16.4993 13.3547 16.1135C13.1948 15.7277 13.153 15.3031 13.2345 14.8936C13.316 14.484 13.5171 14.1078 13.8123 13.8125C14.1076 13.5172 14.4838 13.3162 14.8934 13.2347C15.303 13.1532 15.7275 13.195 16.1133 13.3548C16.4991 13.5146 16.8289 13.7853 17.0609 14.1325C17.2929 14.4797 17.4167 14.8879 17.4167 15.3055C17.4163 15.8653 17.1937 16.4021 16.7978 16.798C16.4019 17.1939 15.8652 17.4164 15.3053 17.4169Z" fill="#3D3D3D"/>
</g>
<defs>
<clipPath id="clip0_2018_17558">
<rect width="19" height="19" fill="white"/>
</clipPath>
</defs>
</svg>
