<svg width="19" height="19" viewBox="0 0 19 19" fill="none" xmlns="http://www.w3.org/2000/svg">
<g clip-path="url(#clip0_2018_17556)">
<path d="M13.8541 1.51758C12.9626 1.53144 12.0906 1.7803 11.3261 2.239C10.5616 2.69771 9.93167 3.35002 9.49993 4.13008C9.06818 3.35002 8.43825 2.69771 7.67374 2.239C6.90923 1.7803 6.03722 1.53144 5.14576 1.51758C3.72467 1.57932 2.38578 2.20099 1.42159 3.24676C0.457398 4.29254 -0.0537095 5.67741 -7.37102e-05 7.09883C-7.37102e-05 10.6985 3.78884 14.63 6.96659 17.2955C7.6761 17.8917 8.57316 18.2186 9.49993 18.2186C10.4267 18.2186 11.3238 17.8917 12.0333 17.2955C15.211 14.63 18.9999 10.6985 18.9999 7.09883C19.0536 5.67741 18.5425 4.29254 17.5783 3.24676C16.6141 2.20099 15.2752 1.57932 13.8541 1.51758ZM11.016 16.0842C10.5916 16.4416 10.0547 16.6375 9.49993 16.6375C8.94516 16.6375 8.40823 16.4416 7.98388 16.0842C3.9163 12.6714 1.58326 9.39704 1.58326 7.09883C1.52914 6.09714 1.8733 5.1147 2.54067 4.36576C3.20804 3.61682 4.14449 3.16215 5.14576 3.10091C6.14703 3.16215 7.08347 3.61682 7.75085 4.36576C8.41822 5.1147 8.76238 6.09714 8.70826 7.09883C8.70826 7.30879 8.79167 7.51015 8.94013 7.65862C9.0886 7.80709 9.28996 7.89049 9.49993 7.89049C9.70989 7.89049 9.91125 7.80709 10.0597 7.65862C10.2082 7.51015 10.2916 7.30879 10.2916 7.09883C10.2375 6.09714 10.5816 5.1147 11.249 4.36576C11.9164 3.61682 12.8528 3.16215 13.8541 3.10091C14.8554 3.16215 15.7918 3.61682 16.4592 4.36576C17.1266 5.1147 17.4707 6.09714 17.4166 7.09883C17.4166 9.39704 15.0836 12.6714 11.016 16.0811V16.0842Z" fill="#3D3D3D"/>
</g>
<defs>
<clipPath id="clip0_2018_17556">
<rect width="19" height="19" fill="white"/>
</clipPath>
</defs>
</svg>
