<svg width="103" height="22" viewBox="0 0 103 22" fill="none" xmlns="http://www.w3.org/2000/svg">
<rect y="20" width="3" height="2" fill="white"/>
<rect x="4" y="20" width="3" height="2" fill="white"/>
<rect x="8" y="20" width="3" height="2" fill="white"/>
<rect x="12" y="19" width="3" height="3" fill="white"/>
<rect x="16" y="17" width="3" height="5" fill="white"/>
<rect x="20" width="3" height="22" fill="white"/>
<rect x="24" y="14" width="3" height="8" fill="white"/>
<rect x="28" width="3" height="22" fill="white"/>
<rect x="32" width="3" height="22" fill="white"/>
<rect x="36" width="3" height="22" fill="white"/>
<rect x="40" width="3" height="22" fill="white"/>
<rect x="44" y="7" width="3" height="15" fill="white"/>
<rect x="48" y="17" width="3" height="5" fill="white"/>
<rect x="52" width="3" height="22" fill="white"/>
<rect x="56" width="3" height="22" fill="white"/>
<rect x="60" y="14" width="3" height="8" fill="white"/>
<rect x="64" width="3" height="22" fill="white"/>
<rect x="68" width="3" height="22" fill="white"/>
<rect x="72" y="15" width="3" height="7" fill="white"/>
<rect x="76" width="3" height="22" fill="white"/>
<rect x="80" y="12" width="3" height="10" fill="white"/>
<rect x="84" width="3" height="22" fill="white"/>
<rect x="88" y="9" width="3" height="13" fill="white"/>
<rect x="92" y="6" width="3" height="16" fill="white"/>
<rect x="96" y="16" width="3" height="6" fill="white"/>
<rect x="100" y="19" width="3" height="3" fill="white"/>
</svg>
