<svg width="20" height="20" viewBox="0 0 20 20" fill="none" xmlns="http://www.w3.org/2000/svg">
<path d="M10.8333 3.33398H4.16667C1.86917 3.33398 0 5.20315 0 7.50065V12.5007C0 14.7982 1.86917 16.6673 4.16667 16.6673H10.8333C13.1308 16.6673 15 14.7982 15 12.5007V7.50065C15 5.20315 13.1308 3.33398 10.8333 3.33398ZM10 10.834H8.33333V12.5007C8.33333 12.9607 7.96 13.334 7.5 13.334C7.04 13.334 6.66667 12.9607 6.66667 12.5007V10.834H5C4.54 10.834 4.16667 10.4607 4.16667 10.0007C4.16667 9.54065 4.54 9.16732 5 9.16732H6.66667V7.50065C6.66667 7.04065 7.04 6.66732 7.5 6.66732C7.96 6.66732 8.33333 7.04065 8.33333 7.50065V9.16732H10C10.46 9.16732 10.8333 9.54065 10.8333 10.0007C10.8333 10.4607 10.46 10.834 10 10.834ZM20 6.91982V13.019C20 13.6498 19.65 14.2165 19.0858 14.4982C18.85 14.6157 18.5967 14.674 18.345 14.674C17.9942 14.674 17.6475 14.5615 17.3542 14.3415C17.3233 14.3182 16.6667 13.6665 16.6667 13.6665V6.27898C16.6667 6.27898 17.3217 5.62148 17.3542 5.59732C17.8575 5.21898 18.52 5.15815 19.0858 5.44065C19.6517 5.72315 20 6.28898 20 6.91982Z" fill="#559BEF"/>
</svg>
