<svg width="17" height="17" viewBox="0 0 17 17" fill="none" xmlns="http://www.w3.org/2000/svg">
<g clip-path="url(#clip0_2018_16467)">
<path d="M3.54167 14.1673H9.20833C11.1612 14.1673 12.75 12.5785 12.75 10.6257V6.37565C12.75 4.42278 11.1612 2.83398 9.20833 2.83398H3.54167C1.58879 2.83398 0 4.42278 0 6.37565V10.6257C0 12.5785 1.58879 14.1673 3.54167 14.1673ZM17 5.88903V11.0733C17 11.6095 16.7025 12.0912 16.223 12.3306C16.0225 12.4305 15.8072 12.4801 15.5932 12.4801C15.295 12.4801 15.0004 12.3844 14.751 12.1974C14.7248 12.1776 14.1667 11.6237 14.1667 11.6237V5.34432C14.1667 5.34432 14.7234 4.78544 14.751 4.7649C15.1789 4.44332 15.742 4.39161 16.223 4.63173C16.7039 4.87186 17 5.35282 17 5.88903Z" fill="#559BEF"/>
</g>
<defs>
<clipPath id="clip0_2018_16467">
<rect width="17" height="17" fill="white"/>
</clipPath>
</defs>
</svg>
