<svg width="274" height="227" viewBox="0 0 274 227" fill="none" xmlns="http://www.w3.org/2000/svg">
<path d="M34.506 -133.159L35.3258 -136.658C111.152 -111.376 155.442 -17.5454 134.251 72.9187C59.3885 47.958 15.2548 -43.7896 34.506 -133.159Z" fill="#559BEF"/>
<path d="M-28.2485 148.239L-31.1819 147.261C-9.99082 56.7972 68.6569 3.95674 144.483 29.2388C123.561 118.553 46.6593 171.207 -28.2485 148.239Z" fill="#559BEF"/>
<path d="M207.616 223.109L206.796 226.609C130.97 201.326 86.6797 107.496 107.871 17.0316C182.733 41.9923 226.867 133.74 207.616 223.109Z" fill="#559BEF"/>
<path d="M270.37 -58.2892L273.303 -57.3111C252.112 33.1531 173.465 85.9936 97.6388 60.7115C118.561 -28.6031 195.462 -81.2569 270.37 -58.2892Z" fill="#559BEF"/>
</svg>
