<svg width="13" height="7" viewBox="0 0 13 7" fill="none" xmlns="http://www.w3.org/2000/svg">
<path fill-rule="evenodd" clip-rule="evenodd" d="M7.13754 6.97074C7.13754 6.97074 7.37216 6.94614 7.49233 6.82431C7.60233 6.71269 7.59852 6.50205 7.59852 6.50205C7.59852 6.50205 7.58389 5.51844 8.06776 5.37321C8.54463 5.23038 9.15694 6.32441 9.80676 6.7451C10.2976 7.06316 10.6702 6.99355 10.6702 6.99355L12.4067 6.97074C12.4067 6.97074 13.3146 6.91793 12.8842 6.24399C12.8486 6.18878 12.633 5.74529 11.5934 4.8343C10.5043 3.8807 10.6505 4.03494 11.9616 2.38519C12.7602 1.38059 13.0794 0.76726 12.9796 0.505006C12.8848 0.254154 12.2973 0.320768 12.2973 0.320768L10.3428 0.33217C10.3428 0.33217 10.1978 0.313566 10.0903 0.374179C9.98542 0.433591 9.91739 0.572219 9.91739 0.572219C9.91739 0.572219 9.60838 1.34938 9.19572 2.01072C8.32527 3.40541 7.97747 3.47922 7.83505 3.3928C7.50378 3.19056 7.58644 2.58143 7.58644 2.14875C7.58644 0.796666 7.80389 0.233149 7.16361 0.0873193C6.95124 0.0387092 6.79483 0.00690265 6.25119 0.00150153C5.55369 -0.00509983 4.96363 0.00390201 4.62919 0.158134C4.40665 0.260755 4.23497 0.490003 4.33989 0.503205C4.46896 0.519409 4.76144 0.577621 4.91658 0.776862C5.11687 1.03431 5.10988 1.61163 5.10988 1.61163C5.10988 1.61163 5.22496 3.20316 4.84092 3.4006C4.57769 3.53623 4.21653 3.25957 3.44019 1.99391C3.04279 1.34578 2.74268 0.629231 2.74268 0.629231C2.74268 0.629231 2.68482 0.495404 2.58118 0.423389C2.45592 0.336371 2.28107 0.309365 2.28107 0.309365L0.423805 0.320768C0.423805 0.320768 0.144676 0.327969 0.0423071 0.442593C-0.0486166 0.544014 0.035313 0.754657 0.035313 0.754657C0.035313 0.754657 1.48946 3.96592 3.13626 5.58446C4.64636 7.06796 6.36055 6.97074 6.36055 6.97074H7.13754Z" fill="#559BEF"/>
</svg>
