<svg width="12" height="11" viewBox="0 0 12 11" fill="none" xmlns="http://www.w3.org/2000/svg">
<path d="M11.383 1.2084C11.2003 1.12292 10.9991 1.10044 10.805 1.14385C10.6108 1.18726 10.4326 1.29459 10.293 1.45216L9 2.90455L6.707 0.32888C6.51947 0.118298 6.26516 0 6 0C5.73484 0 5.48053 0.118298 5.293 0.32888L3 2.90455L1.707 1.45216C1.56715 1.29511 1.38898 1.18817 1.19503 1.14485C1.00108 1.10152 0.800045 1.12377 0.617345 1.20877C0.434646 1.29377 0.278483 1.4377 0.168598 1.62238C0.0587141 1.80706 4.22243e-05 2.02418 0 2.24631L0 8.19181C0.000793929 8.93631 0.264441 9.65007 0.73311 10.1765C1.20178 10.703 1.8372 10.9991 2.5 11H9.5C10.1628 10.9991 10.7982 10.703 11.2669 10.1765C11.7356 9.65007 11.9992 8.93631 12 8.19181V2.24631C12.0001 2.02417 11.9415 1.80699 11.8316 1.62225C11.7218 1.4375 11.5657 1.29349 11.383 1.2084Z" fill="#7A7FAA"/>
</svg>
