<svg width="20" height="20" viewBox="0 0 20 20" fill="none" xmlns="http://www.w3.org/2000/svg">
<g clip-path="url(#clip0_592_63289)">
<path d="M18.9683 9.61038L18.9684 9.61C19.0318 9.16114 18.9982 8.70389 18.8697 8.26915C18.7412 7.83441 18.5209 7.43233 18.2236 7.09009C17.9263 6.74784 17.5591 6.47341 17.1466 6.28535C16.7341 6.09729 16.2861 5.99998 15.8327 6H15.8327H12.5085H11.3309L11.5217 4.83795L11.8016 3.1335C11.8017 3.13345 11.8017 3.1334 11.8017 3.13335C11.8609 2.7713 11.7882 2.40001 11.5968 2.08703L12.4499 1.56531L11.5968 2.08703C11.4054 1.774 11.1079 1.5401 10.7586 1.42787C10.4093 1.31564 10.0312 1.33254 9.69331 1.4755C9.3556 1.61837 9.08036 1.87765 8.9176 2.20622C8.91749 2.20642 8.91739 2.20663 8.91729 2.20683L7.66602 4.74632V16.5H15.2466C16.0086 16.4956 16.7438 16.2182 17.3188 15.7183C17.894 15.2183 18.2708 14.5287 18.3811 13.7747C18.3812 13.774 18.3813 13.7733 18.3815 13.7726L18.9683 9.61038Z" fill="white" stroke="#24CA8E" stroke-width="2"/>
<path d="M1.92896 6.92896C1.33522 7.5227 1.00115 8.32765 1 9.16731V13.3327C1.00115 14.1724 1.33522 14.9773 1.92896 15.571C2.48314 16.1252 3.22133 16.4532 4 16.4954V6.00464C3.22133 6.04682 2.48314 6.37477 1.92896 6.92896Z" fill="white" stroke="#24CA8E" stroke-width="2"/>
</g>
<defs>
<clipPath id="clip0_592_63289">
<rect width="20" height="20" fill="white" transform="matrix(1 0 0 -1 0 20)"/>
</clipPath>
</defs>
</svg>
