<svg width="20" height="20" viewBox="0 0 20 20" fill="none" xmlns="http://www.w3.org/2000/svg">
<g clip-path="url(#clip0_592_63286)">
<path d="M1.03169 10.3896L1.03163 10.39C0.968169 10.8389 1.00182 11.2961 1.1303 11.7309C1.25879 12.1656 1.47911 12.5677 1.77638 12.9099C2.07366 13.2522 2.44095 13.5266 2.85342 13.7147C3.2659 13.9027 3.71394 14 4.16727 14H4.16732H7.49148H8.6691L8.47827 15.1621L8.19836 16.8665C8.19835 16.8666 8.19834 16.8666 8.19833 16.8666C8.13912 17.2287 8.21182 17.6 8.40322 17.913L7.5501 18.4347L8.40322 17.913C8.59465 18.226 8.89208 18.4599 9.24142 18.5721C9.59075 18.6844 9.96876 18.6675 10.3067 18.5245C10.6444 18.3816 10.9196 18.1224 11.0824 17.7938C11.0825 17.7936 11.0826 17.7934 11.0827 17.7932L12.334 15.2537V3.5H4.75337C3.99142 3.50444 3.25625 3.78177 2.68118 4.28173C2.10605 4.78173 1.72917 5.47128 1.61886 6.22529C1.61875 6.22601 1.61865 6.22672 1.61855 6.22743L1.03169 10.3896Z" fill="white" stroke="#FF4848" stroke-width="2"/>
<path d="M18.071 13.071C18.6648 12.4773 18.9988 11.6724 19 10.8327V6.66731C18.9988 5.82765 18.6648 5.0227 18.071 4.42896C17.5169 3.87477 16.7787 3.54682 16 3.50464V13.9954C16.7787 13.9532 17.5169 13.6252 18.071 13.071Z" fill="white" stroke="#FF4848" stroke-width="2"/>
</g>
<defs>
<clipPath id="clip0_592_63286">
<rect width="20" height="20" fill="white" transform="matrix(-1 0 0 1 20 0)"/>
</clipPath>
</defs>
</svg>
