<svg width="12" height="12" viewBox="0 0 12 12" fill="none" xmlns="http://www.w3.org/2000/svg">
<path d="M8.74889 0C8.18609 0.00996298 7.63557 0.188767 7.15292 0.518356C6.67026 0.847945 6.27257 1.31665 6 1.87713C5.72743 1.31665 5.32974 0.847945 4.84708 0.518356C4.36443 0.188767 3.81391 0.00996298 3.25111 0C2.35394 0.0443633 1.50866 0.491043 0.899949 1.24245C0.291233 1.99386 -0.031442 2.98892 0.00241958 4.01023C0.00241958 6.59669 2.39445 9.42149 4.40065 11.3367C4.84857 11.7651 5.41491 12 6 12C6.58509 12 7.15143 11.7651 7.59935 11.3367C9.60555 9.42149 11.9976 6.59669 11.9976 4.01023C12.0314 2.98892 11.7088 1.99386 11.1001 1.24245C10.4913 0.491043 9.64606 0.0443633 8.74889 0Z" fill="#7A7FAA"/>
</svg>
