<svg width="12" height="13" viewBox="0 0 12 13" fill="none" xmlns="http://www.w3.org/2000/svg">
<path d="M0.224605 9.75C0.684257 10.5276 1.70361 10.7948 2.50137 10.3467C2.50192 10.3464 2.50244 10.3461 2.50299 10.3458L2.75027 10.2066C3.21706 10.5959 3.7536 10.8978 4.3329 11.0971V11.375C4.3329 12.2725 5.07929 13 6 13C6.92071 13 7.6671 12.2725 7.6671 11.375V11.0971C8.24647 10.8975 8.78305 10.5952 9.24973 10.2055L9.49813 10.3453C10.2961 10.794 11.3162 10.5273 11.7765 9.74944C12.2369 8.97165 11.9632 7.97733 11.1652 7.5286L10.9185 7.38994C11.0296 6.80085 11.0296 6.19696 10.9185 5.60785L11.1652 5.46919C11.9632 5.02046 12.2369 4.02617 11.7765 3.24835C11.3162 2.47056 10.2961 2.20378 9.49813 2.65251L9.25085 2.79172C8.78359 2.40292 8.24668 2.10158 7.6671 1.90287V1.625C7.6671 0.727543 6.92071 0 6 0C5.07929 0 4.3329 0.727543 4.3329 1.625V1.90287C3.75353 2.10252 3.21695 2.40477 2.75027 2.79447L2.50187 2.65418C1.7039 2.20543 0.68384 2.47221 0.223485 3.25C-0.23687 4.02779 0.0367958 5.02211 0.834765 5.47084L1.0815 5.6095C0.970426 6.19859 0.970426 6.80248 1.0815 7.39159L0.834765 7.53025C0.0390099 7.98017 -0.23377 8.97254 0.224605 9.75ZM6 4.33334C7.22761 4.33334 8.2228 5.30339 8.2228 6.5C8.2228 7.69661 7.22761 8.66666 6 8.66666C4.77239 8.66666 3.7772 7.69661 3.7772 6.5C3.7772 5.30339 4.77239 4.33334 6 4.33334Z" fill="#7A7FAA"/>
</svg>
