<svg width="17" height="17" viewBox="0 0 17 17" fill="none" xmlns="http://www.w3.org/2000/svg">
<g clip-path="url(#clip0_879_14330)">
<path d="M13.4583 0H3.54167C2.6027 0.00112473 1.70252 0.374625 1.03857 1.03857C0.374625 1.70252 0.00112473 2.6027 0 3.54167L0 13.4583C0.00112473 14.3973 0.374625 15.2975 1.03857 15.9614C1.70252 16.6254 2.6027 16.9989 3.54167 17V14.875C3.54167 13.56 4.06406 12.2988 4.99393 11.3689C5.9238 10.4391 7.18497 9.91667 8.5 9.91667C9.81503 9.91667 11.0762 10.4391 12.0061 11.3689C12.9359 12.2988 13.4583 13.56 13.4583 14.875V17C14.3973 16.9989 15.2975 16.6254 15.9614 15.9614C16.6254 15.2975 16.9989 14.3973 17 13.4583V3.54167C16.9989 2.6027 16.6254 1.70252 15.9614 1.03857C15.2975 0.374625 14.3973 0.00112473 13.4583 0V0ZM8.5 8.5C7.93962 8.5 7.39182 8.33383 6.92588 8.0225C6.45995 7.71117 6.09679 7.26866 5.88234 6.75094C5.66789 6.23321 5.61178 5.66352 5.72111 5.11391C5.83043 4.5643 6.10028 4.05945 6.49653 3.6632C6.89278 3.26695 7.39763 2.9971 7.94724 2.88777C8.49686 2.77845 9.06655 2.83456 9.58427 3.04901C10.102 3.26346 10.5445 3.62661 10.8558 4.09255C11.1672 4.55849 11.3333 5.10629 11.3333 5.66667C11.3333 6.41811 11.0348 7.13878 10.5035 7.67014C9.97212 8.20149 9.25145 8.5 8.5 8.5Z" fill="#7A7FAA"/>
<path d="M8.49992 7.08333C9.28232 7.08333 9.91659 6.44907 9.91659 5.66667C9.91659 4.88426 9.28232 4.25 8.49992 4.25C7.71752 4.25 7.08325 4.88426 7.08325 5.66667C7.08325 6.44907 7.71752 7.08333 8.49992 7.08333Z" fill="#7A7FAA"/>
<path d="M8.49992 11.334C7.56096 11.3351 6.66077 11.7086 5.99682 12.3726C5.33288 13.0365 4.95938 13.9367 4.95825 14.8757V17.0007H12.0416V14.8757C12.0405 13.9367 11.667 13.0365 11.003 12.3726C10.3391 11.7086 9.43888 11.3351 8.49992 11.334Z" fill="#7A7FAA"/>
</g>
<defs>
<clipPath id="clip0_879_14330">
<rect width="17" height="17" fill="white"/>
</clipPath>
</defs>
</svg>
