<svg width="20" height="20" viewBox="0 0 20 20" fill="none" xmlns="http://www.w3.org/2000/svg">
<g clip-path="url(#clip0_1460_12179)">
<path d="M19.7558 18.5773L14.8217 13.6432C14.9283 13.2723 15 12.8923 15 12.4998V7.49984C15 5.20234 13.1308 3.33318 10.8333 3.33318H4.51167L1.42333 0.244009C1.0975 -0.0818246 0.57 -0.0818246 0.244167 0.244009C-0.0816667 0.569842 -0.0808333 1.09651 0.244167 1.42234L3.5775 4.75568L18.5775 19.7557C18.74 19.9182 18.9533 19.9998 19.1667 19.9998C19.38 19.9998 19.5933 19.9182 19.7558 19.7557C20.0817 19.4298 20.0817 18.9032 19.7558 18.5773ZM12.6817 16.2165C12.1225 16.4957 11.5008 16.6665 10.8333 16.6665H4.16667C1.86583 16.6665 0 14.8007 0 12.4998V7.49984C0 6.39818 0.433333 5.40484 1.12583 4.66068L12.6808 16.2165H12.6817ZM20 6.92734V13.0265C20 13.6573 19.65 14.224 19.0858 14.5057C18.85 14.6232 18.5967 14.6815 18.345 14.6815C17.9942 14.6815 17.6475 14.569 17.3542 14.349C17.3233 14.3257 16.6667 13.674 16.6667 13.674V6.28651C16.6667 6.28651 17.3217 5.62901 17.3542 5.60484C17.8575 5.22651 18.52 5.16568 19.0858 5.44818C19.6517 5.73068 20 6.29651 20 6.92734Z" fill="#7A7FAA"/>
</g>
<defs>
<clipPath id="clip0_1460_12179">
<rect width="20" height="20" fill="white"/>
</clipPath>
</defs>
</svg>
