<svg width="17" height="17" viewBox="0 0 17 17" fill="none" xmlns="http://www.w3.org/2000/svg">
<path d="M7.79167 0H2.125C1.56141 0 1.02091 0.223883 0.622398 0.622398C0.223883 1.02091 0 1.56141 0 2.125L0 17H9.91667V2.125C9.91667 1.56141 9.69278 1.02091 9.29427 0.622398C8.89575 0.223883 8.35525 0 7.79167 0ZM4.25 13.4583H2.125V12.0417H4.25V13.4583ZM4.25 10.625H2.125V9.20833H4.25V10.625ZM4.25 7.79167H2.125V6.375H4.25V7.79167ZM4.25 4.95833H2.125V3.54167H4.25V4.95833ZM7.79167 13.4583H5.66667V12.0417H7.79167V13.4583ZM7.79167 10.625H5.66667V9.20833H7.79167V10.625ZM7.79167 7.79167H5.66667V6.375H7.79167V7.79167ZM7.79167 4.95833H5.66667V3.54167H7.79167V4.95833ZM14.875 3.54167H11.3333V17H17V5.66667C17 5.10308 16.7761 4.56258 16.3776 4.16406C15.9791 3.76555 15.4386 3.54167 14.875 3.54167ZM14.875 13.4583H13.4583V12.0417H14.875V13.4583ZM14.875 10.625H13.4583V9.20833H14.875V10.625ZM14.875 7.79167H13.4583V6.375H14.875V7.79167Z" fill="#7A7FAA"/>
</svg>
