<svg width="20" height="20" viewBox="0 0 20 20" fill="none" xmlns="http://www.w3.org/2000/svg">
<path fill-rule="evenodd" clip-rule="evenodd" d="M9.62172 0.521884C9.04453 1.0014 9.10921 1.2577 10.0555 2.24028C11.1145 3.33951 11.1819 3.34568 11.4632 2.36927C12.0562 0.306524 11.071 -0.682226 9.62172 0.521884ZM7.84491 2.97665C7.55315 3.41242 6.29835 3.94241 5.05621 4.15441C2.53665 4.584 2.11642 5.12913 0.602881 9.92595C-0.462842 13.3022 -0.110918 15.0834 1.62111 15.0834C2.17885 15.0834 3.09349 15.481 3.65304 15.9672C4.60296 16.7922 4.72509 16.7692 5.47418 15.6218L6.27754 14.3919L8.67542 15.8983C11.2474 17.5146 12.376 17.712 15.3891 17.0743C16.6738 16.8023 17.3116 16.8696 17.3116 17.2774C17.3116 17.6127 17.9222 17.8875 18.6686 17.8875C20.2473 17.8875 20.2695 17.7232 19.5258 11.5221L19.0255 7.35452L17.3772 7.62429C15.9695 7.85423 15.2141 7.47679 12.2087 5.03884C10.2731 3.46907 8.61842 2.1842 8.53248 2.1842C8.44608 2.1842 8.13667 2.54089 7.84491 2.97665ZM9.1151 5.68941C7.93312 8.45768 7.26365 9.39372 6.66791 9.11049C6.183 8.87999 6.30513 8.32364 7.21434 6.62039C8.50624 4.19983 10.0799 3.42925 9.1151 5.68941ZM6.00297 5.76176C6.00297 6.11284 2.90667 12.5024 2.34667 13.3072C2.03229 13.7587 1.66227 13.8518 1.41258 13.5422C0.76663 12.7413 2.82932 6.64507 3.93394 6.09097C4.94222 5.58509 6.00297 5.41628 6.00297 5.76176ZM13.7376 8.15259C15.6212 9.59393 16.4087 10.5434 16.4132 11.3774C16.4164 12.0274 16.5367 13.1019 16.6801 13.7643C16.9117 14.8355 16.6769 15.0391 14.5586 15.6021C12.2743 16.2095 12.0395 16.1551 8.86359 14.2853C6.69324 13.0072 5.55062 12.0106 5.55062 11.3953C5.55062 10.443 6.05815 10.4492 9.25216 11.4436C10.1134 11.7116 10.4767 11.4795 10.9643 10.3499C11.7319 8.57153 11.2669 7.85647 10.1541 9.10433C8.87128 10.544 8.66094 10.2193 9.48647 8.07295C9.90172 6.99335 10.4278 6.11003 10.6549 6.11003C10.8824 6.11003 12.2697 7.02924 13.7376 8.15259ZM18.3918 12.6387C18.7966 16.9095 18.4524 17.062 17.906 12.8541C17.6644 10.9955 17.6074 9.47504 17.7793 9.47504C17.9512 9.47504 18.2267 10.899 18.3918 12.6387ZM4.69298 14.1277C4.11217 14.8478 3.52367 14.2915 3.95339 13.4289C4.11986 13.0952 4.46319 12.9808 4.7165 13.1749C5.02545 13.4115 5.01776 13.725 4.69298 14.1277ZM1.27461 17.6643C1.10634 18.7753 1.07196 19.8123 1.19817 19.9688C1.32437 20.1253 2.07978 19.6777 2.87682 18.9739L4.32613 17.6941L3.30519 16.6694C1.87894 15.2376 1.62292 15.3627 1.27461 17.6643Z" fill="#559BEF"/>
</svg>
