<svg width="23" height="23" viewBox="0 0 23 23" fill="none" xmlns="http://www.w3.org/2000/svg">
<g clip-path="url(#clip0_587_60227)">
<path d="M1.03714 11.9271L1.03709 11.9275C0.961099 12.465 1.00139 13.0125 1.15523 13.533C1.30907 14.0535 1.57288 14.535 1.92883 14.9448C2.28478 15.3546 2.72456 15.6832 3.21844 15.9083C3.71233 16.1335 4.2488 16.25 4.7916 16.25H4.79165H8.61444H9.79206L9.60122 17.4121L9.27931 19.3723C9.20536 19.8241 9.29608 20.2875 9.53497 20.6782C9.77386 21.0688 10.145 21.3607 10.581 21.5008C11.0169 21.6408 11.4887 21.6197 11.9104 21.4413C12.3319 21.263 12.6755 20.9392 12.8786 20.529C12.8787 20.5289 12.8787 20.5288 12.8788 20.5287L14.3333 17.5767V3.875H5.46518C4.55291 3.88021 3.67268 4.2122 2.98417 4.81078C2.29561 5.40941 1.84443 6.235 1.71245 7.13775C1.71234 7.13848 1.71223 7.1392 1.71213 7.13993L1.03714 11.9271Z" fill="#FF4848" stroke="#FF4848" stroke-width="2"/>
<path d="M20.8878 15.1378C21.5987 14.4269 21.9986 13.4631 22 12.4577V7.6673C21.9986 6.66194 21.5987 5.69814 20.8878 4.98723C20.1868 4.2863 19.2401 3.88764 18.25 3.87529V16.2497C19.2401 16.2374 20.1868 15.8387 20.8878 15.1378Z" fill="#FF4848" stroke="#FF4848" stroke-width="2"/>
</g>
<defs>
<clipPath id="clip0_587_60227">
<rect width="23" height="23" fill="white" transform="matrix(-1 0 0 1 23 0)"/>
</clipPath>
</defs>
</svg>
