<svg width="19" height="15" viewBox="0 0 19 15" fill="none" xmlns="http://www.w3.org/2000/svg">
<g clip-path="url(#clip0_448_4132)">
<path d="M4.28167 14.9658C4.28584 14.9686 4.2914 14.9672 4.29557 14.97C4.32839 14.9885 4.36509 14.9987 4.40262 15C4.42329 15 4.44387 14.9971 4.46379 14.9916L9.50018 13.6013L14.5366 14.9916C14.5565 14.9971 14.5771 15 14.5977 15C14.6352 14.9989 14.6718 14.9884 14.7043 14.9695C14.709 14.9672 14.7141 14.9681 14.7182 14.9653L18.889 12.3872C18.932 12.3604 18.9653 12.3202 18.9837 12.2725C19.0021 12.2249 19.0046 12.1725 18.9909 12.1233L16.6813 3.92016C16.6718 3.88599 16.6548 3.85445 16.6315 3.82792C16.6082 3.80138 16.5793 3.78056 16.5469 3.76701C16.5145 3.75346 16.4794 3.74755 16.4444 3.74972C16.4094 3.75189 16.3754 3.76208 16.3448 3.77953L14.0454 5.08453C13.995 5.11669 13.9588 5.16719 13.9442 5.2256C13.9296 5.284 13.9378 5.34585 13.967 5.39834C13.9962 5.45083 14.0443 5.48995 14.1012 5.50762C14.1581 5.5253 14.2196 5.52016 14.2729 5.49328L16.3161 4.33313L18.4974 12.0797L14.7831 14.3761L13.9008 7.23656C13.8931 7.17484 13.8616 7.1187 13.8131 7.08051C13.7645 7.04231 13.703 7.02518 13.642 7.03289C13.5809 7.0406 13.5254 7.07251 13.4877 7.12161C13.4499 7.17071 13.433 7.23296 13.4406 7.29469L14.3243 14.4473L9.73189 13.1794V11.8997C9.73189 11.8375 9.70748 11.7779 9.66403 11.734C9.62057 11.69 9.56164 11.6653 9.50018 11.6653C9.43873 11.6653 9.3798 11.69 9.33634 11.734C9.29289 11.7779 9.26848 11.8375 9.26848 11.8997V13.1794L4.67557 14.4473L5.55931 7.29469C5.56308 7.26413 5.56086 7.23311 5.55279 7.20341C5.54471 7.17372 5.53093 7.14592 5.51223 7.12161C5.49353 7.0973 5.47029 7.07695 5.44381 7.06173C5.41734 7.04651 5.38817 7.03671 5.35795 7.03289C5.32774 7.02908 5.29707 7.03132 5.26771 7.03949C5.23836 7.04766 5.21087 7.06159 5.18684 7.08051C5.16281 7.09942 5.14269 7.12294 5.12764 7.14971C5.1126 7.17649 5.10291 7.206 5.09913 7.23656L4.21726 14.3761L0.502988 12.0802L2.68428 4.33406L4.72748 5.49422C4.78077 5.5211 4.84224 5.52623 4.89918 5.50856C4.95611 5.49089 5.00416 5.45177 5.03338 5.39927C5.0626 5.34678 5.07076 5.28494 5.05617 5.22654C5.04159 5.16813 5.00537 5.11763 4.95501 5.08547L2.65509 3.78C2.62462 3.76236 2.59057 3.75201 2.55554 3.74974C2.5205 3.74748 2.48542 3.75336 2.45299 3.76693C2.42055 3.78051 2.39162 3.80142 2.36841 3.82806C2.34521 3.8547 2.32834 3.88637 2.31911 3.92063L0.00945154 12.1238C-0.00451783 12.173 -0.00210559 12.2255 0.0163167 12.2731C0.0347391 12.3208 0.0681496 12.3611 0.111403 12.3877L4.28167 14.9658Z" fill="white"/>
<path d="M9.34296 10.9538C9.3855 10.9935 9.4412 11.0156 9.49909 11.0159C9.55699 11.0162 9.61288 10.9945 9.65577 10.9552C9.81008 10.8131 13.4391 7.44469 13.4391 3.98438C13.4391 1.74984 11.7092 0 9.50006 0C7.29096 0 5.56104 1.74984 5.56104 3.98438C5.56104 7.38469 9.18864 10.8094 9.34296 10.9538ZM9.50006 0.46875C11.4812 0.46875 12.9757 1.98 12.9757 3.98438C12.9757 6.84234 10.1984 9.76734 9.50145 10.4564C8.80586 9.75938 6.02445 6.79594 6.02445 3.98438C6.02445 1.98 7.51896 0.46875 9.50006 0.46875Z" fill="white"/>
<path d="M11.5855 3.98438C11.5855 2.82141 10.6499 1.875 9.50016 1.875C8.35043 1.875 7.41479 2.82141 7.41479 3.98438C7.41479 5.14734 8.35043 6.09375 9.50016 6.09375C10.6499 6.09375 11.5855 5.14734 11.5855 3.98438ZM9.50016 5.625C8.60577 5.625 7.87821 4.88906 7.87821 3.98438C7.87821 3.07969 8.60577 2.34375 9.50016 2.34375C10.3946 2.34375 11.1221 3.07969 11.1221 3.98438C11.1221 4.88906 10.3946 5.625 9.50016 5.625Z" fill="white"/>
</g>
<defs>
<clipPath id="clip0_448_4132">
<rect width="19" height="15" fill="white"/>
</clipPath>
</defs>
</svg>
