<svg width="23" height="23" viewBox="0 0 23 23" fill="none" xmlns="http://www.w3.org/2000/svg">
<g clip-path="url(#clip0_587_60233)">
<path d="M21.9629 11.0729L21.9629 11.0725C22.0389 10.535 21.9986 9.98755 21.8448 9.46701C21.6909 8.94647 21.4271 8.46503 21.0712 8.05524C20.7152 7.64544 20.2754 7.31685 19.7816 7.09167C19.2877 6.86649 18.7512 6.74997 18.2084 6.75H18.2084H14.3856H13.2079L13.3988 5.58795L13.7207 3.62775C13.7946 3.17587 13.7039 2.71246 13.465 2.32183C13.2261 1.93119 12.855 1.6393 12.419 1.49924C11.9831 1.35918 11.5113 1.38027 11.0896 1.55868C10.6681 1.73703 10.3245 2.06076 10.1214 2.47099C10.1213 2.4711 10.1213 2.47122 10.1212 2.47133L8.66669 5.42332V19.125H17.5348C18.4471 19.1198 19.3273 18.7878 20.0158 18.1892C20.7044 17.5906 21.1556 16.765 21.2876 15.8622C21.2877 15.8615 21.2878 15.8608 21.2879 15.8601L21.9629 11.0729Z" fill="#24CA8E" stroke="#24CA8E" stroke-width="2"/>
<path d="M2.11223 7.86223C1.40133 8.57314 1.00135 9.53694 1 10.5423V15.3327C1.00135 16.3381 1.40133 17.3019 2.11223 18.0128C2.81316 18.7137 3.75994 19.1124 4.75 19.1247V6.75029C3.75994 6.76264 2.81316 7.1613 2.11223 7.86223Z" fill="#24CA8E" stroke="#24CA8E" stroke-width="2"/>
</g>
<defs>
<clipPath id="clip0_587_60233">
<rect width="23" height="23" fill="white" transform="matrix(1 0 0 -1 0 23)"/>
</clipPath>
</defs>
</svg>
