<svg width="13" height="14" viewBox="0 0 13 14" fill="none" xmlns="http://www.w3.org/2000/svg">
<path d="M0.901672 5.80241C0.901672 2.96028 3.40697 0.619141 6.6016 0.619141C9.78488 0.619141 12.3017 2.98251 12.3017 5.80241C12.3017 6.08021 12.2693 6.36283 12.2063 6.64971C11.9215 7.94694 11.0338 9.2881 9.73597 10.6326C9.19104 11.197 8.60886 11.7244 8.02656 12.2013C7.82249 12.3684 7.63266 12.5176 7.46172 12.647C7.35768 12.7258 7.28198 12.7812 7.25263 12.8018C6.88525 13.0777 6.32602 13.0804 5.96731 12.8141C5.92461 12.7838 5.84886 12.7283 5.74475 12.6495C5.57371 12.52 5.38375 12.3707 5.17956 12.2035C4.59688 11.7263 4.01433 11.1986 3.46905 10.6339C2.17252 9.29103 1.285 7.9516 0.998496 6.65611C0.934563 6.36703 0.901672 6.08226 0.901672 5.80241ZM6.60167 7.84793C7.86088 7.84793 8.88167 6.92323 8.88167 5.78256C8.88167 4.64189 7.86088 3.71719 6.60167 3.71719C5.34246 3.71719 4.32167 4.64189 4.32167 5.78256C4.32167 6.92323 5.34246 7.84793 6.60167 7.84793Z" fill="white"/>
</svg>
