<svg width="22" height="22" viewBox="0 0 22 22" fill="none" xmlns="http://www.w3.org/2000/svg">
<g clip-path="url(#clip0_1612_15726)">
<path d="M11.0001 11C11.7252 11 12.4342 10.785 13.0371 10.3821C13.6401 9.97916 14.1101 9.4065 14.3876 8.73651C14.6651 8.06651 14.7377 7.32927 14.5963 6.618C14.4548 5.90674 14.1056 5.2534 13.5928 4.74061C13.08 4.22782 12.4266 3.8786 11.7154 3.73712C11.0041 3.59564 10.2669 3.66825 9.59688 3.94578C8.92688 4.2233 8.35423 4.69326 7.95133 5.29624C7.54843 5.89922 7.33338 6.60814 7.33338 7.33333C7.33338 8.30579 7.71969 9.23843 8.40733 9.92606C9.09496 10.6137 10.0276 11 11.0001 11ZM11.0001 5.5C11.3626 5.5 11.7171 5.60752 12.0186 5.80897C12.3201 6.01042 12.5551 6.29675 12.6938 6.63175C12.8326 6.96674 12.8689 7.33537 12.7982 7.691C12.7274 8.04663 12.5528 8.3733 12.2964 8.6297C12.04 8.88609 11.7133 9.0607 11.3577 9.13144C11.0021 9.20218 10.6335 9.16587 10.2985 9.02711C9.96347 8.88835 9.67714 8.65337 9.47569 8.35188C9.27424 8.05039 9.16672 7.69593 9.16672 7.33333C9.16672 6.8471 9.35987 6.38079 9.70369 6.03697C10.0475 5.69315 10.5138 5.5 11.0001 5.5ZM18.9384 8.39392L18.2793 8.17483C18.3979 7.1481 18.2981 6.10788 17.9865 5.12241C17.6749 4.13694 17.1585 3.22847 16.4712 2.45657C15.7838 1.68467 14.9411 1.06678 13.9982 0.643421C13.0553 0.220062 12.0336 0.000795191 11.0001 0C9.953 0.000404222 8.91819 0.22522 7.96535 0.659299C7.01251 1.09338 6.16378 1.72664 5.47633 2.51641C4.78888 3.30618 4.27869 4.23413 3.98014 5.23771C3.68158 6.2413 3.60159 7.29722 3.74555 8.33433C2.86833 8.4979 2.05717 8.91176 1.40988 9.526C0.961794 9.95202 0.605573 10.4652 0.363123 11.0339C0.120673 11.6027 -0.00288326 12.2151 5.10648e-05 12.8333V16.5688C0.00197753 17.56 0.32436 18.524 0.919092 19.317C1.51382 20.1099 2.34902 20.6894 3.30005 20.9688L5.93088 21.7938C6.37277 21.9313 6.83301 22.0008 7.2958 22C7.71563 21.9995 8.13344 21.9421 8.53788 21.8295L13.8362 20.262C14.3082 20.1332 14.8061 20.1332 15.2781 20.262L17.4662 20.9953C18.0055 21.1266 18.5675 21.1337 19.11 21.0162C19.6524 20.8986 20.161 20.6595 20.5976 20.3167C21.0342 19.974 21.3872 19.5366 21.6301 19.0376C21.8731 18.5386 21.9996 17.9909 22.0001 17.4359V12.716C21.998 11.7676 21.7026 10.8431 21.1545 10.0692C20.6064 9.29523 19.8323 8.70975 18.9384 8.393V8.39392ZM7.11155 3.4485C7.62145 2.93653 8.22744 2.5303 8.89473 2.2531C9.56202 1.97591 10.2775 1.83322 11.0001 1.83322C11.7226 1.83322 12.4381 1.97591 13.1054 2.2531C13.7727 2.5303 14.3786 2.93653 14.8886 3.4485C15.9172 4.48355 16.4954 5.883 16.4973 7.34226C16.4992 8.80152 15.9246 10.2025 14.8986 11.2402L11.6417 14.4073C11.4717 14.5739 11.2432 14.6673 11.0051 14.6673C10.767 14.6673 10.5385 14.5739 10.3685 14.4073L7.11155 11.2539C6.08073 10.2166 5.50217 8.8136 5.50217 7.35121C5.50217 5.88881 6.08073 4.48581 7.11155 3.4485ZM20.1667 17.4359C20.1673 17.7136 20.1045 17.9877 19.9831 18.2374C19.8618 18.4871 19.685 18.7058 19.4664 18.8769C19.2598 19.043 19.0191 19.1616 18.7615 19.2242C18.5039 19.2867 18.2357 19.2918 17.9759 19.239L15.8263 18.5167C15.0132 18.2831 14.1515 18.278 13.3357 18.502L8.03372 20.0677C7.5243 20.2082 6.98519 20.199 6.48088 20.0411L3.82805 19.2161C3.2539 19.0501 2.7491 18.7023 2.38943 18.2249C2.02977 17.7476 1.83466 17.1664 1.83338 16.5688V12.8333C1.83132 12.4628 1.90508 12.0958 2.05011 11.7548C2.19513 11.4138 2.40838 11.1061 2.67672 10.8506C3.09679 10.4502 3.6319 10.1918 4.20663 10.1118C4.57615 11.0277 5.1264 11.8597 5.82455 12.5583L9.0943 15.7236C9.60535 16.224 10.2921 16.5042 11.0074 16.5042C11.7226 16.5042 12.4094 16.224 12.9205 15.7236L16.1866 12.5492C16.9178 11.8149 17.4844 10.9334 17.8485 9.96325L18.3407 10.1264C18.8746 10.3177 19.3364 10.669 19.6632 11.1325C19.99 11.5959 20.1658 12.1489 20.1667 12.716V17.4359Z" fill="#3D3D3D" fill-opacity="0.9"/>
</g>
<defs>
<clipPath id="clip0_1612_15726">
<rect width="22" height="22" fill="white"/>
</clipPath>
</defs>
</svg>
