<svg width="17" height="23" viewBox="0 0 17 23" fill="none" xmlns="http://www.w3.org/2000/svg">
<path fill-rule="evenodd" clip-rule="evenodd" d="M10.521 1.85737C4.28378 3.43078 4.77745 2.78311 4.77745 9.39534V15.2064H3.22266C1.25328 15.2064 0 16.5579 0 18.6822C0 20.7933 1.25063 22.1581 3.18497 22.1581C5.89909 22.1581 6.36993 21.0018 6.36993 14.3351C6.36993 7.54503 5.8614 8.24078 11.8109 6.89157L15.394 6.0788V9.48398C15.394 12.8631 15.3818 12.8892 13.8392 12.8892C11.8698 12.8892 10.6166 14.2407 10.6166 16.365C10.6166 18.476 11.8672 19.8409 13.8015 19.8409C16.7014 19.8409 16.9865 18.9041 16.9865 9.37217C16.9865 -0.645241 17.6022 0.0707836 10.521 1.85737Z" fill="#5599EE"/>
</svg>
